<svg viewBox="0 0 1 516" preserveAspectRatio="none" xmlns="http://www.w3.org/2000/svg"><g fill="none" fill-rule="evenodd"><path fill="#0F0E0E" d="M0 384h1v132h-1z"/><path fill="#C2BEBB" d="M0 0h1v384h-1z"/><path fill="#908B87" d="M0 288h1v3.5h-1zm0-160h1v3.5h-1zm0 128h1v3.5h-1zm0-160h1v3.5h-1zm0 128h1v3.5h-1zm0-160h1v3.5h-1zm0 256h1v3.5h-1zm0-160h1v3.5h-1zm0-160h1v3.5h-1zm0 352h1v3.5h-1zm0-160h1v3.5h-1zm0-160h1v3.5h-1z"/><path fill="#A19D99" d="M0 448h1v3.5h-1zm0-32h1v3.5h-1z"/><path fill="#908B87" d="M0 384h1v3.5h-1z"/><path fill="#A19D99" d="M0 480h1v3.5h-1zm0 32h1v3.5h-1z"/></g></svg>