<svg viewBox="0 0 46 36" data-john-says="This art is hinted for this size. Send an email if you need larger art!" xmlns="http://www.w3.org/2000/svg"><path d="m6.5027 0 7.4973 0 0 31.0554-.0015.2625-.0043.2453a16.2282 16.2282 0 0 1-.0033.1164l-.0088.2213-.0116.2063-.0144.1925a6.616 6.616 0 0 1-.0728.5783l-.027.142a4.2056 4.2056 0 0 1-.0298.1333l-.0325.1258a3.5515 3.5515 0 0 1-.0353.119l-.0379.1134-.0406.1087-.0433.1049-.0458.102-.0486.1003-.051.0994c-.3319.6285-.8189 1.1219-1.4393 1.458l-.0981.0518-.099.0491-.1008.0465-.1035.0438-.1073.0412-.1119.0384a3.4384 3.4384 0 0 1-.1175.0357l-.1242.033a4.0608 4.0608 0 0 1-.1316.0301l-.1401.0274a6.1166 6.1166 0 0 1-.4807.0653l-.1835.0161a9.7713 9.7713 0 0 1-.0967.007l-.2037.0117-.2184.0089-.234.0059a18.93 18.93 0 0 1-.123.0018l-.2592.0015-9.119 0 0-6.001 5.2824 0c.3713 0 .5355-.0343.6747-.0992l.0586-.0297a.8706.8706 0 0 0 .3598-.3645l.0293-.0594c.0595-.1309.0929-.2837.0974-.606l.0005-.0774 0-28.7628Zm16 36 7.4973 0 0-31.0554-.0015-.2625-.0043-.2453a16.228 16.228 0 0 0-.0033-.1164l-.0088-.2213-.0116-.2063-.0144-.1925a6.616 6.616 0 0 0-.0728-.5783l-.027-.142a4.2057 4.2057 0 0 0-.0298-.1333l-.0325-.1258a3.5515 3.5515 0 0 0-.0353-.119l-.0379-.1134-.0406-.1087-.0433-.1049-.0458-.102-.0486-.1003-.051-.0994c-.3319-.6285-.8189-1.1219-1.4393-1.458l-.0981-.0518-.099-.0491-.1008-.0465-.1035-.0438-.1073-.0412-.1119-.0384a3.4383 3.4383 0 0 0-.1175-.0357l-.1242-.033a4.0608 4.0608 0 0 0-.1316-.0301l-.1401-.0274a6.1166 6.1166 0 0 0-.4807-.0653l-.1835-.0161a9.772 9.772 0 0 0-.0967-.007l-.2037-.0117-.2184-.0089-.234-.0059a18.933 18.933 0 0 0-.123-.0018l-.2592-.0015-8.619 0 0 6.001 4.7824 0c.3713 0 .5355.0343.6747.0992l.0586.0297a.8706.8706 0 0 1 .3599.3645l.0292.0594c.0595.1309.0929.2837.0974.606l.0005.0774 0 28.7628Zm16 0 7.4973 0 0-31.0554-.0015-.2625-.0043-.2453a16.228 16.228 0 0 0-.0033-.1164l-.0088-.2213-.0116-.2063-.0144-.1925a6.616 6.616 0 0 0-.0728-.5783l-.027-.142a4.2057 4.2057 0 0 0-.0298-.1333l-.0325-.1258a3.5515 3.5515 0 0 0-.0353-.119l-.0379-.1134-.0406-.1087-.0433-.1049-.0458-.102-.0486-.1003-.051-.0994c-.3319-.6285-.8189-1.1219-1.4393-1.458l-.0981-.0518-.099-.0491-.1008-.0465-.1035-.0438-.1073-.0412-.1119-.0384a3.4383 3.4383 0 0 0-.1175-.0357l-.1242-.033a4.0608 4.0608 0 0 0-.1316-.0301l-.1401-.0274a6.1166 6.1166 0 0 0-.4807-.0653l-.1835-.0161a9.772 9.772 0 0 0-.0967-.007l-.2037-.0117-.2184-.0089-.234-.0059a18.933 18.933 0 0 0-.123-.0018l-.2592-.0015-8.619 0 0 6.001 4.7824 0c.3713 0 .5355.0343.6747.0992l.0586.0297a.8706.8706 0 0 1 .3598.3645l.0293.0594c.0595.1309.0929.2837.0974.606l.0005.0774 0 28.7628Z" fill-rule="evenodd"/></svg>