<svg xmlns="http://www.w3.org/2000/svg" preserveAspectRatio="xMaxYMin slice" viewBox="0 0 480 480"><g fill="none" fill-rule="evenodd"><path d="m38.4583 0 239.0834 0c13.3728 0 18.2221 1.3924 23.111 4.007 4.8889 2.6146 8.7257 6.4514 11.3403 11.3403 2.6146 4.8889 4.007 9.7382 4.007 23.111l0 75.0834c0 13.3728-1.3924 18.2221-4.007 23.111-2.6146 4.8889-6.4514 8.7257-11.3403 11.3403-4.8889 2.6146-9.7382 4.007-23.111 4.007l-239.0834 0c-13.3728 0-18.2221-1.3924-23.111-4.007-4.8889-2.6146-8.7257-6.4514-11.3403-11.3403-2.6146-4.8889-4.007-9.7382-4.007-23.111l0-75.0834c0-13.3728 1.3924-18.2221 4.007-23.111 2.6146-4.8889 6.4514-8.7257 11.3403-11.3403 4.8889-2.6146 9.7382-4.007 23.111-4.007Z" fill="#40B4F4"/><path d="m131.639 79.9995 12.1564 0 15.4419-38.7689 0-7.228-31.2123 0 0 9.9878 18.9902 0zm42.2001-19.6473-9.725 9.1337 0 10.5136 27.9267 0 0-9.9879-15.5733 0 4.0083-3.6798c7.6224-6.9652 11.8936-11.762 11.8936-19.1873 0-9.1337-6.2425-13.9305-15.2448-13.9305-4.4683 0-8.7394 1.1828-13.0106 2.8255l0 10.8422c5.454-2.2342 8.9366-3.5484 11.9593-3.5484 3.5483 0 5.7825 1.9056 5.7825 5.1254 0 4.2055-3.4827 7.688-8.0167 11.8935Zm-91.4468 62.0302c-1.9365 0-3.6372-.3822-5.1024-1.1466-1.465-.7644-2.6116-1.8919-3.4397-3.3824-.8281-1.4906-1.2422-3.2933-1.2422-5.4082 0-2.1148.414-3.9175 1.2422-5.4081.828-1.4906 1.9747-2.618 3.4397-3.3825 1.4652-.7644 3.166-1.1466 5.1024-1.1466 1.8855 0 3.4844.3567 4.7966 1.0702 1.3123.7134 2.3187 1.6307 3.0194 2.7518.7007 1.1211 1.1148 2.3187 1.2422 3.5927l-6.1917 0c-.051-.9173-.3376-1.637-.86-2.1594-.5223-.5224-1.2293-.7835-2.1211-.7835-1.1466 0-2.0002.4331-2.5608 1.2994-.5605.8664-.8408 2.1276-.8408 3.7838l0 .7644c0 1.6562.2803 2.9175.8408 3.7838.5606.8663 1.4142 1.2995 2.5608 1.2995.8918 0 1.5988-.2612 2.1212-.7835.5223-.5224.809-1.2422.86-2.1595l6.1916 0c-.1274 1.274-.5415 2.4716-1.2422 3.5927-.7007 1.1211-1.7072 2.0384-3.0194 2.7519-1.3122.7134-2.911 1.0701-4.7966 1.0701Zm21.7563 0c-1.9365 0-3.6437-.3822-5.1215-1.1466-1.4779-.7644-2.6372-1.8919-3.478-3.3824-.8409-1.4906-1.2613-3.2933-1.2613-5.4082 0-2.1148.4204-3.9175 1.2613-5.4081.8408-1.4906 2.0001-2.618 3.478-3.3825 1.4778-.7644 3.185-1.1466 5.1215-1.1466 1.911 0 3.6117.3822 5.1023 1.1466 1.4906.7644 2.65 1.892 3.478 3.3825.8281 1.4906 1.2422 3.2933 1.2422 5.4081 0 2.1149-.414 3.9176-1.2422 5.4081-.828 1.4906-1.9874 2.6181-3.478 3.3825-1.4906.7644-3.1913 1.1466-5.1023 1.1466Zm-3.5927-9.555c0 1.6562.3121 2.9175.9364 3.7838.6242.8663 1.5097 1.2995 2.6563 1.2995 1.121 0 2.0001-.4332 2.6371-1.2995.637-.8663.9555-2.1276.9555-3.7838l0-.7644c0-1.6562-.3185-2.9174-.9555-3.7838-.637-.8663-1.516-1.2994-2.6371-1.2994-1.1466 0-2.032.4331-2.6563 1.2994-.6243.8664-.9364 2.1276-.9364 3.7838l0 .7644Zm26.2662 9.555c-1.9365 0-3.6436-.3822-5.1215-1.1466-1.4778-.7644-2.6371-1.8919-3.478-3.3824-.8408-1.4906-1.2612-3.2933-1.2612-5.4082 0-2.1148.4204-3.9175 1.2612-5.4081.8409-1.4906 2.0002-2.618 3.478-3.3825 1.4779-.7644 3.185-1.1466 5.1215-1.1466 1.911 0 3.6118.3822 5.1024 1.1466 1.4906.7644 2.6499 1.892 3.478 3.3825.8281 1.4906 1.2422 3.2933 1.2422 5.4081 0 2.1149-.4141 3.9176-1.2422 5.4081-.8281 1.4906-1.9874 2.6181-3.478 3.3825-1.4906.7644-3.1914 1.1466-5.1024 1.1466Zm-3.5927-9.555c0 1.6562.3122 2.9175.9364 3.7838.6243.8663 1.5097 1.2995 2.6563 1.2995 1.1211 0 2.0002-.4332 2.6372-1.2995.637-.8663.9555-2.1276.9555-3.7838l0-.7644c0-1.6562-.3185-2.9174-.9555-3.7838-.637-.8663-1.516-1.2994-2.6372-1.2994-1.1466 0-2.032.4331-2.6563 1.2994-.6242.8664-.9364 2.1276-.9364 3.7838l0 .7644Zm16.9406-17.6194 6.0005 0 0 22.244 1.7581 0 0 4.5482-7.7586 0zm25.9641 26.7922c-1.8346 0-3.1659-.4522-3.994-1.3568-.828-.9045-1.2421-2.2486-1.2421-4.0322l0-17.9252 6.0387-.9555 0 17.5812c0 .5351.0382.93.1147 1.1848.0764.2548.2357.4268.4777.516.242.0892.6052.1338 1.0893.1338l1.567 0 0 4.854-4.0513 0Zm-7.4911-19.11 11.5424 0 0 4.854-11.5424 0 0-4.854Zm24.0113 19.4922c-1.9365 0-3.6437-.3822-5.1215-1.1466-1.4779-.7644-2.6372-1.8919-3.478-3.3824-.8409-1.4906-1.2613-3.2933-1.2613-5.4082 0-2.1148.4204-3.9175 1.2613-5.4081.8408-1.4906 2.0001-2.618 3.478-3.3825 1.4778-.7644 3.185-1.1466 5.1215-1.1466 1.911 0 3.6117.3822 5.1023 1.1466 1.4906.7644 2.65 1.892 3.478 3.3825.8281 1.4906 1.2422 3.2933 1.2422 5.4081 0 2.1149-.414 3.9176-1.2422 5.4081-.828 1.4906-1.9874 2.6181-3.478 3.3825-1.4906.7644-3.1913 1.1466-5.1023 1.1466Zm-3.5927-9.555c0 1.6562.3121 2.9175.9364 3.7838.6242.8663 1.5097 1.2995 2.6563 1.2995 1.121 0 2.0001-.4332 2.6371-1.2995.637-.8663.9555-2.1276.9555-3.7838l0-.7644c0-1.6562-.3185-2.9174-.9555-3.7838-.637-.8663-1.516-1.2994-2.6371-1.2994-1.1466 0-2.032.4331-2.6563 1.2994-.6243.8664-.9364 2.1276-.9364 3.7838l0 .7644Zm29.7104 1.1514c0-2.0568 1.4054-3.4965 3.428-3.4965 2.0224 0 3.428 1.4397 3.428 3.4965 0 2.0568-1.4056 3.4966-3.428 3.4966-2.0226 0-3.428-1.4398-3.428-3.4966Zm-5.622-.2056c0 5.4505 3.7365 8.6385 9.05 8.6385 5.6561 0 9.0498-3.5651 9.0498-8.4671 0-5.0392-3.8736-7.7816-7.7472-7.7816-.8228 0-1.577.1371-2.2625.3428l5.4848-8.5014-6.6503 0-3.668 6.4446c-1.8511 3.2223-3.2566 5.9647-3.2566 9.3242Zm27.0757.8912c0-1.6797 1.1998-2.8795 2.9138-2.8795 1.714 0 2.9138 1.1998 2.9138 2.8795 0 1.6455-1.1998 2.811-2.9138 2.811-1.714 0-2.9138-1.1655-2.9138-2.811Zm-5.622.9942c0 4.045 3.531 6.7531 8.5358 6.7531 5.0049 0 8.5357-2.7081 8.5357-6.9245 0-2.8796-1.5426-4.902-3.805-5.9305 2.1596-.857 3.6336-2.571 3.6336-5.2105 0-4.045-3.4622-6.7532-8.3643-6.7532-4.902 0-8.3643 2.7081-8.3643 6.9246 0 2.8452 1.474 4.5592 3.6337 5.382-2.2625 1.0626-3.8051 3.0851-3.8051 5.759Zm5.7934-10.7297c0-1.5083 1.1313-2.571 2.7424-2.571 1.6112 0 2.7424 1.0627 2.7424 2.571 0 1.5083-1.1312 2.571-2.7424 2.571-1.6111 0-2.7424-1.0627-2.7424-2.571Z" fill="#080400" fill-rule="nonzero"/><g transform="translate(322 328.002)" fill="#9786FC"><path d="M141.118 4.4068c5.3777 2.876 9.5982 7.0966 12.4743 12.4744l.3525.6726.2272.4503.2209.453.2145.457.2083.4624a30.417 30.417 0 0 1 .1017.2335l.1987.4725a29.0993 29.0993 0 0 1 .097.2393l.1891.4853a28.667 28.667 0 0 1 .0922.2464l.1794.501a28.7757 28.7757 0 0 1 .0873.2548l.1698.5193.1632.533c.0267.09.053.1807.0792.272l.1534.5559.147.5726a33.9546 33.9546 0 0 1 .0709.293l.137.6.1304.6198c.0212.105.042.2109.0627.3177l.1204.6517.1137.6746a47.1863 47.1863 0 0 1 .0544.3462l.1036.7111a53.3357 53.3357 0 0 1 .0493.3651l.0935.7503.0868.778.08.8068.073.8369.0663.8682.0594.9007.0525.9344.0456.9693.0387 1.0055.0316 1.0428.0247 1.0814.0238 1.697.0071 1.1831 0 68.6068-.007 1.1831-.0239 1.697-.0247 1.0814-.0316 1.0429-.0387 1.0054-.0455.9694-.0526.9344-.0594.9007-.0662.8681-.0732.837-.08.8068-.0867.7779-.0935.7503-.1003.7238a49.1525 49.1525 0 0 1-.0526.3524l-.1104.6864a43.7864 43.7864 0 0 1-.0577.3344l-.1204.6517-.127.6302a36.953 36.953 0 0 1-.0661.3074l-.137.6a33.951 33.951 0 0 1-.071.293l-.1469.5726-.1534.5558a30.4992 30.4992 0 0 1-.0792.272l-.1632.533-.1698.5193-.1762.5068a34.2377 34.2377 0 0 1-.0905.249l-.186.4903a28.8947 28.8947 0 0 1-.0953.2415l-.1955.4764a29.858 29.858 0 0 1-.1002.2353l-.205.4654-.2115.4596-.2177.4549-.224.4515-.3478.6734a46.31 46.31 0 0 1-.119.224c-2.8762 5.3778-7.0967 9.5984-12.4744 12.4744l-.6727.3525-.4502.2272-.453.2209-.4572.2146-.4623.2082a30.3713 30.3713 0 0 1-.2335.1018l-.4725.1987a29.1007 29.1007 0 0 1-.2393.097l-.4853.189a28.6594 28.6594 0 0 1-.2464.0922l-.501.1794a28.8071 28.8071 0 0 1-.2548.0873l-.5193.1698-.533.1632a30.4659 30.4659 0 0 1-.272.0792l-.5558.1534-.5727.147a33.951 33.951 0 0 1-.293.071l-.6.137-.6198.1303a39.365 39.365 0 0 1-.3177.0627l-.6517.1204-.6746.1137a47.2437 47.2437 0 0 1-.3462.0544l-.711.1036a53.3342 53.3342 0 0 1-.3652.0493l-.7503.0936-.778.0867-.8068.08-.8369.073-.8682.0664-.9006.0594-.9345.0525-.9693.0455-1.0055.0387-1.0428.0316-1.0814.0247-1.697.0239-1.183.007-68.607 0-1.183-.007-1.697-.0239-1.0814-.0247-1.0428-.0316-1.0055-.0387-.9693-.0455-.9345-.0525-.9006-.0594-.8682-.0663-.837-.0731-.8067-.08-.778-.0867-.7503-.0936-.7238-.1003a49.1457 49.1457 0 0 1-.3524-.0526l-.6864-.1104a43.7838 43.7838 0 0 1-.3344-.0577l-.6517-.1204-.6302-.127a36.9617 36.9617 0 0 1-.3073-.066l-.6-.137a33.9546 33.9546 0 0 1-.293-.071l-.5727-.147-.5558-.1534a30.4629 30.4629 0 0 1-.272-.0792l-.533-.1632-.5193-.1698-.5068-.1762a28.6514 28.6514 0 0 1-.249-.0905l-.4903-.186a28.888 28.888 0 0 1-.2414-.0953l-.4765-.1955a29.8925 29.8925 0 0 1-.2353-.1001l-.4654-.2051-.4596-.2114-.4549-.2178-.4514-.224-.6735-.3478a46.4218 46.4218 0 0 1-.224-.119c-5.3778-2.8761-9.5983-7.0967-12.4744-12.4744l-.2399-.4547-.2335-.4557-.227-.458-.2205-.4617-.214-.4664-.2075-.4726a29.8038 29.8038 0 0 1-.1013-.239l-.1977-.4841a28.8364 28.8364 0 0 1-.0963-.2455l-.1878-.4985a28.6206 28.6206 0 0 1-.0914-.2533l-.1778-.5157a29.0757 29.0757 0 0 1-.0864-.2627l-.1678-.5358-.161-.5508a31.262 31.262 0 0 1-.0781-.2814l-.151-.5755a33.4518 33.4518 0 0 1-.073-.2945l-.1408-.6033-.134-.6232-.1272-.6445a41.4953 41.4953 0 0 1-.061-.3307l-.1169-.6788a47.3594 47.3594 0 0 1-.11-.7032l-.103-.729-.0962-.756-.0892-.784-.0822-.8137a71.7141 71.7141 0 0 1-.0384-.4183l-.0717-.8603a82.7583 82.7583 0 0 1-.0332-.4423l-.061-.9097-.054-.9443-.0468-.9801-.0397-1.0172-.0325-1.0555-.0253-1.0952-.0181-1.136-.011-1.1781c-.0026-.2-.0026-.4017-.0026-.6053l0-68.6068.007-1.183.0239-1.6971.0247-1.0814.0316-1.0428.0387-1.0055.0455-.9693.0526-.9344.0594-.9007.0662-.8682.0732-.837.08-.8067.0867-.778.0935-.7503.1003-.7238a49.1282 49.1282 0 0 1 .0526-.3524l.1104-.6864a43.7684 43.7684 0 0 1 .0577-.3344l.1204-.6517.127-.6302a36.9494 36.9494 0 0 1 .0661-.3073l.137-.6a33.9442 33.9442 0 0 1 .071-.293l.1469-.5726.1534-.5559a30.4882 30.4882 0 0 1 .0792-.272l.1632-.533.1698-.5193.1762-.5067a34.2666 34.2666 0 0 1 .0905-.2491l.186-.4902a28.8796 28.8796 0 0 1 .0953-.2415l.1955-.4765a29.887 29.887 0 0 1 .1002-.2353l.205-.4654.2115-.4595.2177-.455.224-.4514.3478-.6735a46.4137 46.4137 0 0 1 .119-.224c2.8762-5.3778 7.0967-9.5983 12.4744-12.4744l.4547-.2399.4557-.2334.458-.227.4617-.2206.4664-.214.4726-.2075a29.8014 29.8014 0 0 1 .239-.1013l.4841-.1977a28.8354 28.8354 0 0 1 .2455-.0963l.4985-.1878a28.6191 28.6191 0 0 1 .2533-.0914l.5158-.1778a29.0759 29.0759 0 0 1 .2626-.0864l.5358-.1678.5508-.161a31.2593 31.2593 0 0 1 .2814-.078l.5756-.151a33.4482 33.4482 0 0 1 .2945-.073l.6032-.1409.6232-.134.6446-.1272a41.495 41.495 0 0 1 .3306-.061l.6788-.1169a47.3602 47.3602 0 0 1 .7033-.11l.729-.103.7558-.0962.7842-.0892.8137-.0822a71.7163 71.7163 0 0 1 .4182-.0384l.8603-.0717a82.752 82.752 0 0 1 .4423-.0331l.9098-.0611.9442-.054.9801-.0468 1.0172-.0397 1.0555-.0325 1.0952-.0253 1.136-.0181 1.1781-.0109c.2-.0027.4017-.0027.6053-.0027l68.6068 0 1.1831.007 1.697.024 1.0814.0246 1.0428.0316 1.0055.0387.9693.0456.9345.0525.9006.0594.8682.0662.837.0732.8067.08.778.0867.7503.0935.7238.1003a49.1348 49.1348 0 0 1 .3524.0527l.6864.1103a43.7715 43.7715 0 0 1 .3344.0577l.6517.1204.6302.127a36.9499 36.9499 0 0 1 .3073.0661l.6.137a31.561 31.561 0 0 1 .293.071l.5727.1469.5558.1534a30.4906 30.4906 0 0 1 .272.0792l.533.1633.5193.1697.5068.1762c.0834.03.1664.0601.249.0906l.4903.1859a28.886 28.886 0 0 1 .2414.0953l.4765.1955a29.8707 29.8707 0 0 1 .2353.1002l.4654.205.4596.2115.4549.2177.4514.224.6735.3478a46.3807 46.3807 0 0 1 .224.1191Zm-93.3861 7.5929-1.5985.0106-1.4984.0215-.946.0209-.9055.0262-.8665.0317-.8291.0373-.7933.0431-.759.049-.7262.0551-.6951.0613-.6656.0675-.6375.074-.6111.0807-.5862.0875-.563.0943-.541.1013a26.1747 26.1747 0 0 0-.263.0533l-.5114.1122a22.9213 22.9213 0 0 0-.4937.1195l-.4773.127a20.7483 20.7483 0 0 0-.233.0664l-.456.1386a19.6503 19.6503 0 0 0-.2232.0722l-.438.1505-.4279.1585-.4195.1667-.4126.1751-.4073.1836-.4036.1923a23.1089 23.1089 0 0 0-.2009.0994l-.4009.2055a26.6658 26.6658 0 0 0-.2004.106c-3.2865 1.7577-5.794 4.2653-7.5518 7.5518l-.2063.3938-.1978.3946-.1893.397-.181.4006-.173.4059a19.4834 19.4834 0 0 0-.0834.2054l-.1609.4165-.153.4255-.1453.4359a19.9393 19.9393 0 0 0-.0698.2223l-.134.4542-.1265.4683a23.1386 23.1386 0 0 0-.1762.7322l-.1086.51a27.5239 27.5239 0 0 0-.1016.5292l-.0947.55-.088.5722-.0815.5959-.075.621-.0686.6476-.0624.6757-.0564.7053-.0503.7363-.0446.7689-.0388.8028-.0478 1.2713-.0356 1.356-.0173.9536-.0121.9949-.009 1.5732 0 68.5108.0106 1.5985.0215 1.4984.0209.946.0262.9055.0317.8665.0373.8291.0431.7933.049.759.055.7262.0613.6951.0676.6656.074.6375.0807.6111.0874.5862.0943.563.1014.541a26.1765 26.1765 0 0 0 .0533.263l.1121.5114a22.9218 22.9218 0 0 0 .1196.4937l.127.4773a21.618 21.618 0 0 0 .0664.2331l.1386.4559a19.6492 19.6492 0 0 0 .0722.2232l.1504.438.1586.4279.1667.4195.1751.4126.1836.4073.1923.4036c.0327.067.0659.134.0994.2009l.2054.4009a26.6623 26.6623 0 0 0 .1061.2004c1.7577 3.2865 4.2653 5.7941 7.5518 7.5518l.3938.2063.3946.1978.397.1893.4006.1811.4059.1729a19.4964 19.4964 0 0 0 .2054.0834l.4165.161.4255.153.4358.1453a19.9359 19.9359 0 0 0 .2223.0697l.4543.134.4683.1265a23.1367 23.1367 0 0 0 .7322.1762l.51.1086a27.5204 27.5204 0 0 0 .5292.1016l.55.0948.5722.088.5959.0814.621.075.6476.0686.6757.0624.7053.0564.7364.0503.7688.0446.8029.0388 1.2713.0478 1.356.0356.9536.0173.995.0121 1.5731.009 68.4852 0 1.5732-.009.995-.0121.9535-.0173 1.356-.0356 1.2713-.0478.8029-.0388.7688-.0446.7364-.0503.7053-.0564.6757-.0624.6476-.0686.621-.075.5959-.0814.5722-.088.55-.0948a28.1374 28.1374 0 0 0 .267-.05l.5195-.105a23.946 23.946 0 0 0 .745-.1708l.4759-.123a21.1758 21.1758 0 0 0 .2323-.0641l.4543-.134.4416-.1414a19.4695 19.4695 0 0 0 .2165-.0737l.4255-.153.4165-.1609.4091-.1688a20.0546 20.0546 0 0 0 .2022-.0875l.4007-.181.3969-.1894.3946-.1978.3938-.2063c3.2865-1.7577 5.794-4.2653 7.5518-7.5518l.2063-.3938.1978-.3946.1893-.3969.181-.4007.173-.4059a19.5008 19.5008 0 0 0 .0834-.2054l.1609-.4165.153-.4255.1453-.4358a19.9325 19.9325 0 0 0 .0698-.2223l.134-.4543.1265-.4683a23.1387 23.1387 0 0 0 .1762-.7322l.1086-.51a27.5197 27.5197 0 0 0 .1016-.5292l.0947-.55.088-.5722.0815-.5959.075-.621.0686-.6476.0624-.6757.0564-.7053.0503-.7364.0446-.7688.0388-.8029.0478-1.2712.0356-1.356.0173-.9537.0121-.9949.009-1.5732 0-68.4852-.009-1.5732-.0121-.995-.0173-.9535-.0356-1.356-.0478-1.2713-.0388-.8028-.0446-.769-.0503-.7362-.0564-.7053-.0624-.6758-.0686-.6476-.075-.621-.0814-.5959-.088-.5722-.0948-.55a28.1667 28.1667 0 0 0-.05-.267l-.105-.5195a23.9499 23.9499 0 0 0-.1708-.745l-.123-.4759a21.1925 21.1925 0 0 0-.0641-.2323l-.134-.4542-.1415-.4417a19.4653 19.4653 0 0 0-.0736-.2165l-.153-.4255-.1609-.4165-.1689-.4091a20.026 20.026 0 0 0-.0874-.2022l-.181-.4007-.1894-.3969-.1978-.3946-.2063-.3938c-1.7577-3.2865-4.2653-5.794-7.5518-7.5517l-.3938-.2064-.3946-.1977-.397-.1894-.4006-.181-.4059-.173a19.4834 19.4834 0 0 0-.2054-.0834l-.4165-.1609-.4255-.153-.4358-.1453a19.9365 19.9365 0 0 0-.2223-.0698l-.4543-.134-.4683-.1265a23.1395 23.1395 0 0 0-.7322-.1762l-.51-.1086a27.5232 27.5232 0 0 0-.5292-.1016l-.55-.0947-.5722-.088-.5958-.0815-.621-.075-.6477-.0686-.6757-.0624-.7053-.0563-.7363-.0504-.7689-.0445-.8028-.0389-1.2713-.0478-1.356-.0356-.9536-.0173-.9949-.0121-1.5732-.009-68.5108 0Z" fill-rule="nonzero"/><g font-family="SmarthomeDigits" font-size="49.47" letter-spacing="0.232"><text>
                <tspan text-anchor="end" x="127" y="75" class="clock__hours">10</tspan>
            </text><text>
                <tspan text-anchor="end" x="127" y="113"  class="clock__minutes">37</tspan>
            </text></g></g><g transform="translate(164 164)"><path d="m38.4583 0 104.5681 0c3.1203 0 4.2518.3249 5.3926.935 1.1407.61 2.036 1.5053 2.646 2.646.6101 1.1408.935 2.2723.935 5.3926l0 134.0528c0 3.1203-.3249 4.2518-.935 5.3926-.61 1.1407-1.5053 2.036-2.646 2.646-1.1408.6101-2.2723.935-5.3926.935l-104.5681 0c-13.3728 0-18.2221-1.3924-23.111-4.007-4.8889-2.6146-8.7257-6.4514-11.3403-11.3403-2.6146-4.8889-4.007-9.7382-4.007-23.111l0-75.0834c0-13.3728 1.3924-18.2221 4.007-23.111 2.6146-4.8889 6.4514-8.7257 11.3403-11.3403 4.8889-2.6146 9.7382-4.007 23.111-4.007Z" fill="#9786FC"/><path fill="#080400" d="M44 70h64v12h-64z"/><path d="m172.9736 0 104.5681 0c13.3728 0 18.2221 1.3924 23.111 4.007 4.8889 2.6146 8.7257 6.4514 11.3403 11.3403 2.6146 4.8889 4.007 9.7382 4.007 23.111l0 75.0834c0 13.3728-1.3924 18.2221-4.007 23.111-2.6146 4.8889-6.4514 8.7257-11.3403 11.3403-4.8889 2.6146-9.7382 4.007-23.111 4.007l-104.5681 0c-3.1203 0-4.2518-.3249-5.3926-.935-1.1407-.61-2.036-1.5053-2.646-2.646-.6101-1.1408-.935-2.2723-.935-5.3926l0-134.0528c0-3.1203.3249-4.2518.935-5.3926.61-1.1407 1.5053-2.036 2.646-2.646 1.1408-.6101 2.2723-.935 5.3926-.935Z" fill="#9786FC"/><path fill="#080400" d="M208 70h64v12h-64z"/><path fill="#080400" d="M234 44h12v64h-12z"/></g></g></svg>