<svg preserveAspectRatio="xMinYMin slice" viewBox="0 0 808 480" xmlns="http://www.w3.org/2000/svg"><image href="/assets/sprites/smarthome.jpg" x="-334" y="-826" width="1312" mask="url(#t1)"></image>	<image href="/assets/sprites/smarthome.jpg" x="158" y="-826" width="1312" mask="url(#t2)"></image><path d="m366.4583 0 75.0834 0c13.3728 0 18.2221 1.3924 23.111 4.007 4.8889 2.6146 8.7257 6.4514 11.3403 11.3403 2.6146 4.8889 4.007 9.7382 4.007 23.111l0 75.0834c0 13.3728-1.3924 18.2221-4.007 23.111-2.6146 4.8889-6.4514 8.7257-11.3403 11.3403-4.8889 2.6146-9.7382 4.007-23.111 4.007l-75.0834 0c-13.3728 0-18.2221-1.3924-23.111-4.007-4.8889-2.6146-8.7257-6.4514-11.3403-11.3403-2.6146-4.8889-4.007-9.7382-4.007-23.111l0-75.0834c0-13.3728 1.3924-18.2221 4.007-23.111 2.6146-4.8889 6.4514-8.7257 11.3403-11.3403 4.8889-2.6146 9.7382-4.007 23.111-4.007Z" class="onfill" fill="#E78C54"/><path fill="#0F0700" d="M380 111h48v12h-48z"/><path d="M404.1096 29.5c6.0107 0 11.1658 1.1448 15.4627 3.3287 4.297 2.184 7.722 5.407 10.1627 9.5634 2.4408 4.1564 3.8965 9.2324 4.2615 15.232l1.7776 29.2223c.6371 10.474-7.3373 19.4814-17.8114 20.1185a18.9996 18.9996 0 0 1-1.1536.0351l-25.6182 0c-10.4934 0-19-8.5066-19-19 0-.3848.0117-.7695.035-1.1536l1.7776-29.2222c.365-5.9997 1.8207-11.0757 4.2615-15.2321 2.4408-4.1564 5.8658-7.3794 10.1627-9.5634 4.1435-2.1059 9.0849-3.2456 14.822-3.3243l.8599-.0044Zm0 12-.2192 0c-4.14 0-7.4532.7189-10.0256 2.0263-2.252 1.1446-3.9729 2.764-5.2521 4.9424-1.3977 2.38-2.299 5.4694-2.5948 9.35l-.0365.534-1.7776 29.2223a7 7 0 0 0-.013.425c0 3.7855 3.0049 6.8691 6.7594 6.996l.2407.004 25.6182 0a7 7 0 0 0 .425-.013c3.7785-.2298 6.674-3.4162 6.5727-7.1716l-.0106-.2404-1.7776-29.2222c-.2513-4.1324-1.17-7.3958-2.6313-9.8841-1.2792-2.1784-3-3.7978-5.252-4.9424-2.5725-1.3074-5.8857-2.0263-10.0257-2.0263Z" fill="#0F0700" fill-rule="nonzero"/><path d="m38.4583 328 75.0834 0c13.3728 0 18.2221 1.3924 23.111 4.007 4.8889 2.6146 8.7257 6.4514 11.3403 11.3403 2.6146 4.8889 4.007 9.7382 4.007 23.111l0 75.0834c0 13.3728-1.3924 18.2221-4.007 23.111-2.6146 4.8889-6.4514 8.7257-11.3403 11.3403-4.8889 2.6146-9.7382 4.007-23.111 4.007l-75.0834 0c-13.3728 0-18.2221-1.3924-23.111-4.007-4.8889-2.6146-8.7257-6.4514-11.3403-11.3403-2.6146-4.8889-4.007-9.7382-4.007-23.111l0-75.0834c0-13.3728 1.3924-18.2221 4.007-23.111 2.6146-4.8889 6.4514-8.7257 11.3403-11.3403 4.8889-2.6146 9.7382-4.007 23.111-4.007Z" fill="#7E7A78"/><g transform="translate(38 366.5)" fill="#080400"><path d="m56.5145 0 .8782.0042.8293.0125.7826.0207a57.4549 57.4549 0 0 1 .3746.0135l.717.033.6762.0413a38.7604 38.7604 0 0 1 .3235.0237l.619.0534a30.9674 30.9674 0 0 1 .2963.0297l.5672.0654.5354.0734a22.0099 22.0099 0 0 1 .2565.0397l.492.0853.466.0931.4423.101.4208.1087a14.2686 14.2686 0 0 1 .203.0573l.3929.1203a13.2962 13.2962 0 0 1 .3771.128l.3636.1355.3525.1432.3435.1506a14.912 14.912 0 0 1 .1691.0782l.3345.1618.3313.1693c.055.0288.11.058.1651.0874 2.477 1.3247 4.421 3.2687 5.7458 5.7458l.173.3305.1655.3326a15.6528 15.6528 0 0 1 .08.1678l.1544.3399c.0251.0572.05.1148.0744.1727l.1432.3525.1355.3636a13.296 13.296 0 0 1 .128.3771l.1203.3929a14.2677 14.2677 0 0 1 .0573.203l.1087.4208.101.4423.0931.466.0853.492a22.0091 22.0091 0 0 1 .0397.2565l.0734.5354.0654.5672.0574.6012a35.922 35.922 0 0 1 .0257.3141l.0453.6566a45.2695 45.2695 0 0 1 .0196.343l.0331.717.0249.7603a67.5422 67.5422 0 0 1 .0093.397l.0125.8293.0042.8782 0 37.029-.0042.8782-.0125.8293-.0207.7826a57.4525 57.4525 0 0 1-.0135.3746l-.033.717-.0413.6762a38.7563 38.7563 0 0 1-.0237.3235l-.0534.619a30.965 30.965 0 0 1-.0297.2963l-.0654.5672-.0734.5354a22.0091 22.0091 0 0 1-.0397.2565l-.0853.492-.0931.466-.101.4423-.1087.4208a14.2677 14.2677 0 0 1-.0573.203l-.1203.3929a13.296 13.296 0 0 1-.128.3771l-.1355.3636-.1432.3525-.1506.3435a14.9121 14.9121 0 0 1-.0782.1691l-.1618.3345-.1693.3313a20.9931 20.9931 0 0 1-.0874.1651c-1.3247 2.477-3.2687 4.421-5.7458 5.7458l-.3305.173-.3326.1655a15.6527 15.6527 0 0 1-.1678.08l-.3399.1544a13.8815 13.8815 0 0 1-.1727.0744l-.3525.1432-.3636.1355a13.296 13.296 0 0 1-.3771.128l-.3929.1203a14.2677 14.2677 0 0 1-.203.0573l-.4208.1087-.4423.101-.466.0931-.492.0853a22.0091 22.0091 0 0 1-.2565.0397l-.5354.0734-.5672.0654-.6012.0574a35.922 35.922 0 0 1-.3141.0257l-.6566.0453a45.2695 45.2695 0 0 1-.343.0196l-.717.0331-.7603.0249a67.5422 67.5422 0 0 1-.397.0093l-.8293.0125-.8782.0042-37.029 0-.8782-.0042-.8293-.0125-.7827-.0207a57.4525 57.4525 0 0 1-.3745-.0135l-.717-.033-.6762-.0413a38.7563 38.7563 0 0 1-.3235-.0237l-.619-.0534a30.965 30.965 0 0 1-.2963-.0297l-.5672-.0654-.5354-.0734a22.0091 22.0091 0 0 1-.2565-.0397l-.492-.0853-.466-.0931-.4423-.101-.4208-.1087a14.2677 14.2677 0 0 1-.203-.0573l-.3929-.1203a13.296 13.296 0 0 1-.3771-.128l-.3636-.1355-.3525-.1432-.3435-.1506a14.912 14.912 0 0 1-.1691-.0782l-.3345-.1618-.3313-.1693a20.9932 20.9932 0 0 1-.1651-.0874c-2.477-1.3247-4.421-3.2687-5.7458-5.7458l-.173-.3305-.1655-.3326a15.6542 15.6542 0 0 1-.08-.1678l-.1544-.3399a13.8814 13.8814 0 0 1-.0744-.1727l-.1432-.3525-.1355-.3636a13.2962 13.2962 0 0 1-.128-.3771l-.1203-.3929a14.2686 14.2686 0 0 1-.0573-.203l-.1087-.4208-.101-.4423-.0931-.466-.0853-.492a22.0099 22.0099 0 0 1-.0397-.2565l-.0734-.5354-.0654-.5672-.0574-.6012a35.9215 35.9215 0 0 1-.0257-.3141l-.0453-.6566a45.265 45.265 0 0 1-.0196-.343l-.0331-.717-.0249-.7603a67.5379 67.5379 0 0 1-.0093-.397l-.0125-.8293-.0042-.8782.001-37.4743.0084-.8535a73.2663 73.2663 0 0 1 .0073-.4087l.0207-.7827a57.4549 57.4549 0 0 1 .0135-.3745l.033-.717.0413-.6762a38.7604 38.7604 0 0 1 .0237-.3235l.0534-.619a30.9674 30.9674 0 0 1 .0297-.2963l.0654-.5672.0734-.5354a22.0099 22.0099 0 0 1 .0397-.2565l.0853-.492.0931-.466.101-.4423.1087-.4208a14.2686 14.2686 0 0 1 .0573-.203l.1203-.3929a13.2962 13.2962 0 0 1 .128-.3771l.1355-.3636.1432-.3525.1506-.3435a14.9119 14.9119 0 0 1 .0782-.1691l.1618-.3345.1693-.3313a20.9912 20.9912 0 0 1 .0874-.1651c1.3247-2.477 3.2687-4.421 5.7458-5.7458l.3305-.173.3326-.1655a15.6543 15.6543 0 0 1 .1678-.08l.3399-.1544a13.881 13.881 0 0 1 .1727-.0744l.3525-.1432.3636-.1355a13.2962 13.2962 0 0 1 .3771-.128l.3929-.1203a14.2686 14.2686 0 0 1 .203-.0573l.4208-.1087.4423-.101.466-.0931.492-.0853a22.0099 22.0099 0 0 1 .2565-.0397l.5354-.0734.5672-.0654.6012-.0574a35.9215 35.9215 0 0 1 .3141-.0257l.6566-.0453a45.265 45.265 0 0 1 .343-.0196l.717-.0331.7603-.0249a67.5379 67.5379 0 0 1 .397-.0093l.8293-.0125.8782-.0042 37.029 0Zm.6606 12.0014-38.359 0-.6204.0044-.8283.0124-.4887.0124-.6464.025-.378.021-.3394.0247-.3043.0285-.3978.0501-.231.0385-.2075.0427-.1874.047-.1706.0515a3.3998 3.3998 0 0 0-.08.0274l-.1517.0583-.2127.0963-.1367.0704c-.3859.2063-.6169.4373-.8232.8232l-.101.2005-.0616.139-.0571.1467-.0527.1577a3.7153 3.7153 0 0 0-.0248.0838l-.0464.1797-.0422.1982-.0383.2199-.0344.2446-.0306.2723-.027.3032-.0233.337-.0199.3742-.0298.8714-.0141.7736-.0085 1.2111.0011 38.0357.0044.6205.0124.8283.0124.4887.025.6464.021.378.0247.3394.0285.3043.0501.3978.0385.231.0427.2075.047.1874.0515.1706a3.3998 3.3998 0 0 0 .0274.08l.0583.1517.0963.2127.0704.1367c.2063.3859.4373.6169.8232.8232l.2005.101.139.0616.1467.0571.1577.0527a3.7153 3.7153 0 0 0 .0838.0248l.1797.0464.1982.0422.2199.0383.2446.0344.2723.0306.3032.027.337.0233.3742.0199.8714.0298.7736.0141 1.5485.0088 37.6896-.0014.8879-.0074.7736-.014.8714-.0299.5471-.0311.3198-.0252.2873-.0287.3771-.0502.3215-.0589.2763-.068.1642-.0506.1518-.0549.1425-.0593.1362-.0639.133-.0685c.3859-.2063.6169-.4373.8232-.8232l.101-.2005.0616-.139.0571-.1467.0527-.1577a3.7153 3.7153 0 0 0 .0248-.0838l.0464-.1797.0422-.1982.0383-.2199.0344-.2446.0306-.2723.027-.3032.0233-.337.0199-.3742.0298-.8714.0141-.7736.0088-1.5485-.0014-37.6896-.0074-.8879-.014-.7736-.0299-.8714-.0311-.5471-.0252-.3198-.0287-.2873-.0502-.3771-.0589-.3215-.068-.2763-.0506-.1642-.0549-.1518-.0593-.1425-.0639-.1362-.0685-.133c-.2063-.3859-.4373-.6169-.8232-.8232l-.2005-.101-.139-.0616-.1467-.0571-.1577-.0527a3.7153 3.7153 0 0 0-.0838-.0248l-.1797-.0464-.1982-.0422-.2199-.0383-.2446-.0344-.2723-.0306-.3032-.027-.337-.0233-.3742-.0199-.8714-.0298-.7736-.0141-.888-.0074Z" fill-rule="nonzero"/><path d="m23.75 16.75.5 0c1.2254 0 2.3283.286 3.2542.8035.926.5174 1.6749 1.2664 2.1923 2.1923.5175.926.8035 2.0288.8035 3.2542 0 1.2254-.286 2.3283-.8035 3.2542-.5174.926-1.2664 1.6749-2.1923 2.1923-.926.5175-2.0288.8035-3.2542.8035l-.5 0c-1.2254 0-2.3283-.286-3.2542-.8035-.926-.5174-1.6749-1.2664-2.1923-2.1923-.5175-.926-.8035-2.0288-.8035-3.2542 0-1.2254.286-2.3283.8035-3.2542.5174-.926 1.2664-1.6749 2.1923-2.1923.926-.5175 2.0288-.8035 3.2542-.8035Zm0 30 .5 0c1.2254 0 2.3283.286 3.2542.8035.926.5174 1.6749 1.2664 2.1923 2.1923.5175.926.8035 2.0288.8035 3.2542 0 1.2254-.286 2.3283-.8035 3.2542-.5174.926-1.2664 1.6749-2.1923 2.1923-.926.5175-2.0288.8035-3.2542.8035l-.5 0c-1.2254 0-2.3283-.286-3.2542-.8035-.926-.5174-1.6749-1.2664-2.1923-2.1923-.5175-.926-.8035-2.0288-.8035-3.2542 0-1.2254.286-2.3283.8035-3.2542.5174-.926 1.2664-1.6749 2.1923-2.1923.926-.5175 2.0288-.8035 3.2542-.8035Zm14-15 .5 0c1.2254 0 2.3283.286 3.2542.8035.926.5174 1.6749 1.2664 2.1923 2.1923.5175.926.8035 2.0288.8035 3.2542 0 1.2254-.286 2.3283-.8035 3.2542-.5174.926-1.2664 1.6749-2.1923 2.1923-.926.5175-2.0288.8035-3.2542.8035l-.5 0c-1.2254 0-2.3283-.286-3.2542-.8035-.926-.5174-1.6749-1.2664-2.1923-2.1923-.5175-.926-.8035-2.0288-.8035-3.2542 0-1.2254.286-2.3283.8035-3.2542.5174-.926 1.2664-1.6749 2.1923-2.1923.926-.5175 2.0288-.8035 3.2542-.8035Zm14-15 .5 0c1.2254 0 2.3283.286 3.2542.8035.926.5174 1.6749 1.2664 2.1923 2.1923.5175.926.8035 2.0288.8035 3.2542 0 1.2254-.286 2.3283-.8035 3.2542-.5174.926-1.2664 1.6749-2.1923 2.1923-.926.5175-2.0288.8035-3.2542.8035l-.5 0c-1.2254 0-2.3283-.286-3.2542-.8035-.926-.5174-1.6749-1.2664-2.1923-2.1923-.5175-.926-.8035-2.0288-.8035-3.2542 0-1.2254.286-2.3283.8035-3.2542.5174-.926 1.2664-1.6749 2.1923-2.1923.926-.5175 2.0288-.8035 3.2542-.8035Zm0 30 .5 0c1.2254 0 2.3283.286 3.2542.8035.926.5174 1.6749 1.2664 2.1923 2.1923.5175.926.8035 2.0288.8035 3.2542 0 1.2254-.286 2.3283-.8035 3.2542-.5174.926-1.2664 1.6749-2.1923 2.1923-.926.5175-2.0288.8035-3.2542.8035l-.5 0c-1.2254 0-2.3283-.286-3.2542-.8035-.926-.5174-1.6749-1.2664-2.1923-2.1923-.5175-.926-.8035-2.0288-.8035-3.2542 0-1.2254.286-2.3283.8035-3.2542.5174-.926 1.2664-1.6749 2.1923-2.1923.926-.5175 2.0288-.8035 3.2542-.8035Z"/></g><mask id="t2"><path d="m694.4583 164 75.0834 0c13.3728 0 18.2221 1.3924 23.111 4.007 4.8889 2.6146 8.7257 6.4514 11.3403 11.3403 2.6146 4.8889 4.007 9.7382 4.007 23.111l0 75.0834c0 13.3728-1.3924 18.2221-4.007 23.111-2.6146 4.8889-6.4514 8.7257-11.3403 11.3403-4.8889 2.6146-9.7382 4.007-23.111 4.007l-75.0834 0c-13.3728 0-18.2221-1.3924-23.111-4.007-4.8889-2.6146-8.7257-6.4514-11.3403-11.3403-2.6146-4.8889-4.007-9.7382-4.007-23.111l0-75.0834c0-13.3728 1.3924-18.2221 4.007-23.111 2.6146-4.8889 6.4514-8.7257 11.3403-11.3403 4.8889-2.6146 9.7382-4.007 23.111-4.007Z" fill="#fff"/></mask><path d="M734 196c.4485 0 .8954.0067 1.3406.02-3.397 5.8784-5.3406 12.7022-5.3406 19.98 0 22.0914 17.9086 40 40 40a40.3845 40.3845 0 0 0 5.1258-.3254c-6.3156 16.5611-22.3468 28.3254-41.1258 28.3254-24.3005 0-44-19.6995-44-44 0-24.3005 19.6995-44 44-44Zm-15.863 16.202-.1456.084c-9.56 5.5342-15.9914 15.873-15.9914 27.714 0 17.6731 14.3269 32 32 32 7.2099 0 13.9681-2.4062 19.4032-6.548l.1408-.11-.7522-.2569c-20.0055-7.013-34.423-25.9107-34.7848-48.2252l-.007-.8599a52.5826 52.5826 0 0 1 .1187-3.5346l.0183-.2634Z" fill="#0F0700" fill-rule="nonzero"/><mask id="t1"><path d="m530.4565 163.9982 75.0834 0c13.3728 0 18.2221 1.3924 23.111 4.007 4.8889 2.6146 8.7257 6.4515 11.3403 11.3403 2.6146 4.889 4.007 9.7382 4.007 23.111l0 75.0834c0 13.3728-1.3924 18.2221-4.007 23.111-2.6146 4.8889-6.4514 8.7257-11.3403 11.3403-4.8889 2.6146-9.7382 4.007-23.111 4.007l-75.0834 0c-13.3728 0-18.222-1.3924-23.111-4.007-4.8888-2.6146-8.7257-6.4514-11.3403-11.3403-2.6146-4.8889-4.007-9.7382-4.007-23.111l0-75.0834c0-13.3728 1.3924-18.222 4.007-23.111 2.6146-4.8888 6.4515-8.7257 11.3403-11.3403 4.889-2.6146 9.7382-4.007 23.111-4.007Z" fill="#fff"/></mask><path d="M567.9982 193.9982c25.4051 0 46 20.595 46 46 0 25.4051-20.5949 46-46 46-25.405 0-46-20.5949-46-46 0-25.405 20.595-46 46-46Zm0 12c-18.7777 0-34 15.2223-34 34 0 18.7777 15.2223 34 34 34 18.7777 0 34-15.2223 34-34 0-18.7777-15.2223-34-34-34Zm9.0001 44.0002c3.0589 0 4.9857 3.2938 3.4867 5.9602-2.136 3.7993-7.0894 6.0398-12.4868 6.0398-5.3973 0-10.3508-2.2405-12.4867-6.0398-1.499-2.6664.4278-5.9602 3.4866-5.9602l0 0Zm-21.5-21.5002c1.1121 0 2.094.2404 2.9088.6845.8148.444 1.4626 1.0918 1.9067 1.9066.444.8149.6844 1.7967.6844 2.909l0 4c0 1.1121-.2403 2.094-.6844 2.9088-.4441.8148-1.0919 1.4626-1.9067 1.9067-.8148.444-1.7967.6844-2.9089.6844-1.1122 0-2.094-.2403-2.9089-.6844-.8148-.444-1.4625-1.0919-1.9066-1.9067-.4441-.8148-.6845-1.7967-.6845-2.9089l0-4c0-1.1122.2404-2.094.6845-2.9089.444-.8148 1.0918-1.4625 1.9066-1.9066.8149-.4441 1.7967-.6845 2.909-.6845Zm25 0c1.1121 0 2.094.2404 2.9088.6845.8148.444 1.4626 1.0918 1.9067 1.9066.444.8149.6844 1.7967.6844 2.909l0 4c0 1.1121-.2403 2.094-.6844 2.9088-.4441.8148-1.0919 1.4626-1.9067 1.9067-.8148.444-1.7967.6844-2.9089.6844-1.1122 0-2.094-.2403-2.9089-.6844-.8148-.444-1.4625-1.0919-1.9066-1.9067-.4441-.8148-.6845-1.7967-.6845-2.9089l0-4c0-1.1122.2404-2.094.6845-2.9089.444-.8148 1.0918-1.4625 1.9066-1.9066.8149-.4441 1.7967-.6845 2.909-.6845Z" fill="#0F0700" fill-rule="nonzero"/></svg>