<svg preserveAspectRatio="xMidYMin slice" viewBox="0 0 976 1628" xmlns="http://www.w3.org/2000/svg"><mask id="b1"><path d="m203.7402 0 400.5196 0c13.8185 0 18.8295 1.4388 23.8813 4.1406 5.0519 2.7017 9.0166 6.6664 11.7183 11.7183 2.7018 5.0518 4.1406 10.0628 4.1406 23.8813l0 564.5196c0 13.8185-1.4388 18.8295-4.1406 23.8813-2.7017 5.0519-6.6664 9.0166-11.7183 11.7183-5.0518 2.7018-10.0628 4.1406-23.8813 4.1406l-400.5196 0c-13.8185 0-18.8295-1.4388-23.8813-4.1406-5.0519-2.7017-9.0166-6.6664-11.7183-11.7183-2.7018-5.0518-4.1406-10.0628-4.1406-23.8813l0-564.5196c0-13.8185 1.4388-18.8295 4.1406-23.8813 2.7017-5.0519 6.6664-9.0166 11.7183-11.7183 5.0518-2.7018 10.0628-4.1406 23.8813-4.1406Z" fill="#fff"/></mask><mask id="b3"><path d="m203.7402 656 564.5196 0c13.8185 0 18.8295 1.4388 23.8813 4.1406 5.0519 2.7017 9.0166 6.6664 11.7183 11.7183 2.7018 5.0518 4.1406 10.0628 4.1406 23.8813l0 236.5196c0 13.8185-1.4388 18.8295-4.1406 23.8813-2.7017 5.0519-6.6664 9.0166-11.7183 11.7183-5.0518 2.7018-10.0628 4.1406-23.8813 4.1406l-564.5196 0c-13.8185 0-18.8295-1.4388-23.8813-4.1406-5.0519-2.7017-9.0166-6.6664-11.7183-11.7183-2.7018-5.0518-4.1406-10.0628-4.1406-23.8813l0-236.5196c0-13.8185 1.4388-18.8295 4.1406-23.8813 2.7017-5.0519 6.6664-9.0166 11.7183-11.7183 5.0518-2.7018 10.0628-4.1406 23.8813-4.1406Z" fill="#fff"/></mask><mask id="b5"><path d="m367.7402 984 564.5196 0c13.8185 0 18.8295 1.4388 23.8813 4.1406 5.0519 2.7017 9.0166 6.6664 11.7183 11.7183 2.7018 5.0518 4.1406 10.0628 4.1406 23.8813l0 400.5196c0 13.8185-1.4388 18.8295-4.1406 23.8813-2.7017 5.0519-6.6664 9.0166-11.7183 11.7183-5.0518 2.7018-10.0628 4.1406-23.8813 4.1406l-564.5196 0c-13.8185 0-18.8295-1.4388-23.8813-4.1406-5.0519-2.7017-9.0166-6.6664-11.7183-11.7183-2.7018-5.0518-4.1406-10.0628-4.1406-23.8813l0-400.5196c0-13.8185 1.4388-18.8295 4.1406-23.8813 2.7017-5.0519 6.6664-9.0166 11.7183-11.7183 5.0518-2.7018 10.0628-4.1406 23.8813-4.1406Z" fill="#fff"/></mask><mask id="b2"><path d="m695.7402 164 72.5196 0c13.8185 0 18.8295 1.4388 23.8813 4.1406 5.0519 2.7017 9.0166 6.6664 11.7183 11.7183 2.7018 5.0518 4.1406 10.0628 4.1406 23.8813l0 400.5196c0 13.8185-1.4388 18.8295-4.1406 23.8813-2.7017 5.0519-6.6664 9.0166-11.7183 11.7183-5.0518 2.7018-10.0628 4.1406-23.8813 4.1406l-72.5196 0c-13.8185 0-18.8295-1.4388-23.8813-4.1406-5.0519-2.7017-9.0166-6.6664-11.7183-11.7183-2.7018-5.0518-4.1406-10.0628-4.1406-23.8813l0-400.5196c0-13.8185 1.4388-18.8295 4.1406-23.8813 2.7017-5.0519 6.6664-9.0166 11.7183-11.7183 5.0518-2.7018 10.0628-4.1406 23.8813-4.1406Z" fill="#fff"/></mask><mask id="b6"><path d="m203.7402 1312 72.5196 0c13.8185 0 18.8295 1.4388 23.8813 4.1406 5.0519 2.7017 9.0166 6.6664 11.7183 11.7183 2.7018 5.0518 4.1406 10.0628 4.1406 23.8813l0 236.5196c0 13.8185-1.4388 18.8295-4.1406 23.8813-2.7017 5.0519-6.6664 9.0166-11.7183 11.7183-5.0518 2.7018-10.0628 4.1406-23.8813 4.1406l-72.5196 0c-13.8185 0-18.8295-1.4388-23.8813-4.1406-5.0519-2.7017-9.0166-6.6664-11.7183-11.7183-2.7018-5.0518-4.1406-10.0628-4.1406-23.8813l0-236.5196c0-13.8185 1.4388-18.8295 4.1406-23.8813 2.7017-5.0519 6.6664-9.0166 11.7183-11.7183 5.0518-2.7018 10.0628-4.1406 23.8813-4.1406Z" fill="#fff"/></mask><mask id="b4"><path d="m39.7402 984 236.5196 0c13.8185 0 18.8295 1.4388 23.8813 4.1406 5.0519 2.7017 9.0166 6.6664 11.7183 11.7183 2.7018 5.0518 4.1406 10.0628 4.1406 23.8813l0 236.5196c0 13.8185-1.4388 18.8295-4.1406 23.8813-2.7017 5.0519-6.6664 9.0166-11.7183 11.7183-5.0518 2.7018-10.0628 4.1406-23.8813 4.1406l-236.5196 0c-13.8185 0-18.8295-1.4388-23.8813-4.1406-5.0519-2.7017-9.0166-6.6664-11.7183-11.7183-2.7018-5.0518-4.1406-10.0628-4.1406-23.8813l0-236.5196c0-13.8185 1.4388-18.8295 4.1406-23.8813 2.7017-5.0519 6.6664-9.0166 11.7183-11.7183 5.0518-2.7018 10.0628-4.1406 23.8813-4.1406Z" fill="#fff"/></mask>
	<image href="/assets/sprites/smarthome.jpg" x="158" y="-498" width="1312" mask="url(#b1)"></image>
	<image href="/assets/sprites/smarthome.jpg" x="158" y="-334" width="1312" mask="url(#b2)"></image>
	<image href="/assets/sprites/smarthome.jpg" x="-498" y="158" width="1312" mask="url(#b3)"></image>
	<image href="/assets/sprites/smarthome.jpg" x="-990" y="158" width="1312" mask="url(#b4)"></image>
	<image href="/assets/sprites/smarthome.jpg" x="328" y="984" width="1312" mask="url(#b5)"></image>
	<image href="/assets/sprites/smarthome.jpg" x="-498" y="486" width="1312" mask="url(#b6)"></image></svg>