<svg viewBox="0 0 316 316" preserveAspectRatio="xMinYMin slice" xmlns="http://www.w3.org/2000/svg"><g fill="none" fill-rule="evenodd"><path d="m38.4583 0 239.0834 0c13.3728 0 18.2221 1.3924 23.111 4.007 4.8889 2.6146 8.7257 6.4514 11.3403 11.3403 2.6146 4.8889 4.007 9.7382 4.007 23.111l0 75.0834c0 13.3728-1.3924 18.2221-4.007 23.111-2.6146 4.8889-6.4514 8.7257-11.3403 11.3403-4.8889 2.6146-9.7382 4.007-23.111 4.007l-239.0834 0c-13.3728 0-18.2221-1.3924-23.111-4.007-4.8889-2.6146-8.7257-6.4514-11.3403-11.3403-2.6146-4.8889-4.007-9.7382-4.007-23.111l0-75.0834c0-13.3728 1.3924-18.2221 4.007-23.111 2.6146-4.8889 6.4514-8.7257 11.3403-11.3403 4.8889-2.6146 9.7382-4.007 23.111-4.007Z" fill="#A53124"/><path fill="#FF6351" d="m113 104 71 0 33.5-34-70.5 0z"/><path d="m112 112 0-.285-19-19.0007-.2812-.2846-.4784-.5004a32.1985 32.1985 0 0 1-1.6514-1.9078l-.4603-.5904c-3.2737-4.3049-5.9813-10.188-6.1229-17.9353l-.0058-.6387c0-17.0419 13.8152-30.8571 30.8571-30.8571l.1429.001 0-.001 72 0 0 12-47.287 0 10.001 10 55.034 0-4.198-4.198-.733-.717-.2608-.2438c-3.257-2.9861-7.4895-4.7217-12.482-4.8396l-.0742-12.0016c9.8571 0 16.6194 4.1328 21.1383 8.4378l.5773.5648 19.2844 19.2831-43.7143 43.7143-.2857-.285 0 .285-72 0Zm93.313-38-55.028 0-26 26 55.035 0 8-8-.0006-.006 17.9936-17.994Zm-90.4559-22c-10.3013 0-18.6733 8.26-18.8541 18.5182l-.003.3388.004.468.0136.4303c.1938 4.9134 1.9744 8.7694 4.946 11.9359l.2912.3043.2305.2335 10.7997 10.8 26.744-26.744-10.764-10.762-.448-.438-.2608-.2438c-3.2732-3.001-7.2-4.7341-12.2248-4.8364l-.4743-.0048Z" fill="#0F0700" fill-rule="nonzero"/><g transform="translate(0 164)" class="clapper"><path d="M135.117 4.4069c5.3778 2.876 9.5984 7.0966 12.4744 12.4745l.3525.6726.2272.4503.2209.453.2146.4571.2082.4623a30.3803 30.3803 0 0 1 .1018.2336l.1987.4724a29.1 29.1 0 0 1 .097.2393l.189.4854a28.6676 28.6676 0 0 1 .0922.2464l.1794.5009a28.8088 28.8088 0 0 1 .0873.2549l.1698.5192.1632.533c.0267.09.053.1808.0792.272l.1534.556.147.5726a33.9555 33.9555 0 0 1 .071.293l.137.6.1303.6198c.0212.105.042.2109.0627.3177l.1204.6518.1137.6745a47.2417 47.2417 0 0 1 .0544.3463l.1036.711a53.3371 53.3371 0 0 1 .0493.3652l.0936.7503.0867.778.08.8067.073.837.0664.8682.0594.9007.0525.9344.0455.9693.0387 1.0055.0316 1.0428.0247 1.0814.0239 1.697.007 1.1832 0 68.6076-.007 1.1831-.0239 1.697-.0247 1.0815-.0316 1.0428-.0387 1.0055-.0455.9693-.0525.9344-.0594.9008-.0663.8681-.0731.837-.08.8068-.0867.778-.0936.7502-.1003.7239a49.1453 49.1453 0 0 1-.0526.3523l-.1104.6865a43.7876 43.7876 0 0 1-.0577.3343l-.1204.6518-.127.6302a36.9628 36.9628 0 0 1-.066.3073l-.137.6a33.9607 33.9607 0 0 1-.071.293l-.147.5727-.1534.5558a30.457 30.457 0 0 1-.0792.272l-.1632.533-.1698.5193-.1762.5068a28.664 28.664 0 0 1-.0905.249l-.186.4903a28.8954 28.8954 0 0 1-.0953.2415l-.1955.4765a29.8964 29.8964 0 0 1-.1001.2352l-.2051.4655-.2114.4595-.2178.455-.224.4514-.3478.6735a46.399 46.399 0 0 1-.119.224c-2.8761 5.3779-7.0967 9.5984-12.4744 12.4745l-.6727.3525-.4502.2272-.453.221-.4572.2145-.4623.2082a30.4273 30.4273 0 0 1-.2335.1018l-.4725.1987a29.1007 29.1007 0 0 1-.2392.097l-.4854.189a28.6137 28.6137 0 0 1-.2464.0922l-.501.1795a28.8071 28.8071 0 0 1-.2548.0873l-.5193.1697-.533.1633a30.4992 30.4992 0 0 1-.272.0791l-.5558.1535-.5726.1469a33.9509 33.9509 0 0 1-.293.071l-.6.137-.6199.1304a39.4084 39.4084 0 0 1-.3177.0627l-.6517.1204-.6746.1137a47.1897 47.1897 0 0 1-.3462.0543l-.711.1037a53.3338 53.3338 0 0 1-.3652.0493l-.7503.0935-.778.0868-.8068.08-.8369.073-.8681.0663-.9007.0594-.9344.0525-.9694.0456-1.0054.0387-1.0429.0316-1.0814.0247-1.697.0238-1.183.0071-68.6069 0-1.183-.007-1.6971-.024-1.0814-.0246-1.0428-.0316-1.0055-.0387-.9693-.0456-.9344-.0525-.9007-.0594-.8682-.0662-.837-.0732-.8067-.08-.778-.0867-.7503-.0935-.7238-.1003a49.1454 49.1454 0 0 1-.3524-.0527l-.6864-.1103a43.7338 43.7338 0 0 1-.3344-.0577l-.6517-.1204-.6302-.1271a36.9201 36.9201 0 0 1-.3073-.066l-.6-.137a33.9545 33.9545 0 0 1-.293-.071l-.5726-.1469-.5559-.1535a30.4971 30.4971 0 0 1-.272-.0791l-.533-.1633-.5193-.1697-.5067-.1763a28.5868 28.5868 0 0 1-.2491-.0905l-.4902-.1859a28.8534 28.8534 0 0 1-.2415-.0953l-.4765-.1956a29.858 29.858 0 0 1-.2353-.1001l-.4654-.205-.4595-.2115-.455-.2177-.4514-.224-.6735-.3479a46.4317 46.4317 0 0 1-.224-.119c-5.3778-2.8762-9.5983-7.0967-12.4744-12.4746l-.2399-.4546-.2334-.4557-.227-.458-.2206-.4617-.214-.4665-.2075-.4726a29.8036 29.8036 0 0 1-.1013-.239l-.1977-.484a28.8375 28.8375 0 0 1-.0963-.2455l-.1878-.4985a28.621 28.621 0 0 1-.0914-.2534l-.1778-.5157a29.0765 29.0765 0 0 1-.0864-.2627l-.1678-.5358-.161-.5508a31.263 31.263 0 0 1-.078-.2814l-.151-.5756a33.4526 33.4526 0 0 1-.073-.2945l-.1409-.6032-.134-.6232-.1272-.6446a41.496 41.496 0 0 1-.061-.3306l-.1169-.6788a47.3607 47.3607 0 0 1-.11-.7033l-.103-.729-.0962-.7559-.0892-.7842-.0822-.8136a71.724 71.724 0 0 1-.0384-.4183l-.0717-.8603a82.7604 82.7604 0 0 1-.0331-.4423l-.0611-.9098-.054-.9443-.0468-.98-.0397-1.0173-.0325-1.0555-.0253-1.0951-.0181-1.136-.0109-1.1782c-.0027-.2-.0027-.4017-.0027-.6053l0-68.6076.007-1.1831.024-1.697.0246-1.0815.0316-1.0428.0387-1.0055.0456-.9693.0525-.9344.0594-.9007.0662-.8682.0732-.837.08-.8068.0867-.778.0935-.7502.1003-.7239a49.1285 49.1285 0 0 1 .0527-.3523l.1103-.6865a43.7693 43.7693 0 0 1 .0577-.3343l.1204-.6518.127-.6302a36.95 36.95 0 0 1 .0661-.3073l.137-.6a33.945 33.945 0 0 1 .071-.293l.1469-.5727.1534-.5558a30.4883 30.4883 0 0 1 .0792-.272l.1633-.533.1697-.5193.1762-.5068a28.611 28.611 0 0 1 .0906-.249l.1859-.4903a28.88 28.88 0 0 1 .0953-.2415l.1955-.4765a29.8876 29.8876 0 0 1 .1002-.2352l.205-.4655.2115-.4595.2177-.455.224-.4514.3478-.6735a46.4097 46.4097 0 0 1 .1191-.224c2.876-5.3779 7.0966-9.5984 12.4744-12.4745l.4546-.24.4557-.2334.458-.227.4617-.2205.4665-.214.4725-.2076a29.8014 29.8014 0 0 1 .239-.1013l.4841-.1976a28.836 28.836 0 0 1 .2455-.0964l.4985-.1877a28.62 28.62 0 0 1 .2533-.0914l.5158-.1778a29.0755 29.0755 0 0 1 .2627-.0865l.5358-.1677.5507-.1611a31.2567 31.2567 0 0 1 .2814-.078l.5756-.151a33.4478 33.4478 0 0 1 .2945-.073l.6032-.1408.6232-.134.6446-.1273a41.4944 41.4944 0 0 1 .3306-.061l.6788-.1169a47.3599 47.3599 0 0 1 .7033-.11l.729-.103.7559-.0962.7841-.0892.8137-.0822a71.7147 71.7147 0 0 1 .4183-.0384l.8602-.0717a82.7518 82.7518 0 0 1 .4423-.0331l.9098-.0611.9442-.054.9801-.0468 1.0172-.0397 1.0556-.0325 1.095-.0253 1.136-.0181 1.1782-.0109c.2-.0027.4017-.0027.6053-.0027l68.6068 0 1.1831.007 1.697.024 1.0814.0246 1.0429.0316 1.0054.0387.9694.0456.9344.0525.9007.0594.8681.0662.837.0732.8068.08.7779.0867.7503.0935.7238.1003a49.1343 49.1343 0 0 1 .3524.0527l.6864.1103a43.7711 43.7711 0 0 1 .3344.0577l.6517.1204.6302.1271a36.941 36.941 0 0 1 .3074.066l.6.137c.0984.0234.196.047.293.071l.5726.1469.5558.1535a30.4902 30.4902 0 0 1 .272.0791l.533.1633.5193.1697.5068.1763c.0834.0299.1665.06.249.0905l.4903.1859a28.8864 28.8864 0 0 1 .2415.0953l.4764.1956a29.8867 29.8867 0 0 1 .2353.1001l.4654.205.4596.2115.4549.2177.4515.224.6734.3479a46.381 46.381 0 0 1 .224.119Zm-93.386 7.593-1.5985.0105-1.4984.0216-.946.0208-.9055.0263-.8665.0317-.829.0373-.7933.043-.759.049-.7263.0552-.6951.0612-.6656.0676-.6375.074-.611.0807-.5863.0874-.5629.0943-.5412.1013a26.1775 26.1775 0 0 0-.2629.0534l-.5114.1121a22.9199 22.9199 0 0 0-.4936.1195l-.4774.127a20.7482 20.7482 0 0 0-.233.0665l-.456.1385a19.647 19.647 0 0 0-.2232.0723l-.438.1504-.4279.1585-.4195.1668-.4126.1751-.4073.1836-.4036.1923a23.109 23.109 0 0 0-.2008.0994l-.401.2054a26.6662 26.6662 0 0 0-.2004.1061c-3.2865 1.7577-5.794 4.2653-7.5517 7.552l-.2064.3937-.1977.3946-.1894.3969-.181.4007-.173.4059a19.4873 19.4873 0 0 0-.0834.2054l-.1609.4165-.153.4255-.1453.4359a19.9398 19.9398 0 0 0-.0698.2223l-.134.4542-.1265.4684a23.1396 23.1396 0 0 0-.1762.7321l-.1086.51a27.5246 27.5246 0 0 0-.1016.5293l-.0947.55-.088.5722-.0815.5958-.075.621-.0686.6477-.0624.6757-.0563.7053-.0504.7363-.0445.7689-.0389.8029-.0478 1.2712-.0356 1.356-.0173.9536-.0121.995-.009 1.5732 0 68.5116.0106 1.5985.0215 1.4985.0209.946.0262.9055.0317.8665.0373.829.0431.7933.049.759.0551.7263.0613.6951.0675.6656.074.6375.0807.6111.0875.5863.0943.5629.1013.5411a26.1772 26.1772 0 0 0 .0533.263l.1122.5114a22.92 22.92 0 0 0 .1195.4936l.127.4774a20.753 20.753 0 0 0 .0664.233l.1386.456a19.643 19.643 0 0 0 .0722.2232l.1505.438.1585.4279.1667.4195.1751.4126.1836.4073.1923.4036c.0328.067.0659.134.0994.2009l.2055.4009a26.6701 26.6701 0 0 0 .106.2004c1.7577 3.2866 4.2653 5.7942 7.5518 7.5519l.3938.2063.3946.1978.397.1893.4006.1811.4059.173a19.4947 19.4947 0 0 0 .2054.0833l.4165.161.4255.153.4359.1453a19.9352 19.9352 0 0 0 .2223.0698l.4542.134.4683.1265a23.1394 23.1394 0 0 0 .7322.1762l.51.1085a27.52 27.52 0 0 0 .5293.1016l.55.0948.5721.088.5959.0814.621.075.6476.0687.6758.0624.7053.0563.7363.0504.7689.0445.8028.0388 1.2713.0478 1.356.0357.9536.0172.995.0122 1.5731.009 68.4852 0 1.5732-.009.995-.0122.9535-.0172 1.356-.0357 1.2713-.0478.8029-.0388.7688-.0445.7364-.0504.7053-.0563.6757-.0624.6476-.0687.621-.075.5959-.0814.5722-.088.55-.0948a28.1373 28.1373 0 0 0 .2671-.05l.5194-.105a23.9496 23.9496 0 0 0 .745-.1708l.476-.1229a21.192 21.192 0 0 0 .2322-.0642l.4543-.134.4416-.1414a19.4695 19.4695 0 0 0 .2165-.0736l.4255-.153.4165-.161.4091-.1688a20.0319 20.0319 0 0 0 .2022-.0875l.4007-.181.3969-.1894.3946-.1978.3938-.2063c3.2865-1.7577 5.7941-4.2653 7.5518-7.552l.2063-.3937.1978-.3946.1893-.3969.1811-.4007.1729-.4059a19.4924 19.4924 0 0 0 .0834-.2054l.161-.4165.153-.4255.1453-.4359a19.9397 19.9397 0 0 0 .0697-.2223l.134-.4542.1265-.4684a23.1371 23.1371 0 0 0 .1762-.7321l.1086-.51a27.5219 27.5219 0 0 0 .1016-.5293l.0948-.55.088-.5722.0814-.5958.075-.621.0686-.6477.0624-.6757.0564-.7053.0503-.7364.0446-.7689.0388-.8028.0478-1.2713.0356-1.356.0173-.9536.0121-.995.009-1.5732 0-68.486-.009-1.5732-.0121-.995-.0173-.9536-.0356-1.356-.0478-1.2713-.0388-.8028-.0446-.769-.0503-.7363-.0564-.7053-.0624-.6757-.0686-.6476-.075-.621-.0814-.596-.088-.5721-.0948-.55a28.1358 28.1358 0 0 0-.05-.2671l-.105-.5195a23.9474 23.9474 0 0 0-.1708-.745l-.123-.4759a21.1707 21.1707 0 0 0-.0641-.2323l-.134-.4542-.1414-.4417a19.465 19.465 0 0 0-.0737-.2165l-.153-.4255-.1609-.4165-.1688-.4091a20.0481 20.0481 0 0 0-.0875-.2022l-.181-.4007-.1894-.3969-.1978-.3946-.2063-.3938c-1.7577-3.2866-4.2653-5.7942-7.5518-7.5519l-.3938-.2063-.3946-.1978-.3969-.1893-.4007-.1811-.4059-.173a19.4812 19.4812 0 0 0-.2054-.0833l-.4165-.161-.4255-.153-.4358-.1453a19.9386 19.9386 0 0 0-.2223-.0698l-.4543-.134-.4683-.1265a23.1394 23.1394 0 0 0-.7322-.1762l-.51-.1085a27.5239 27.5239 0 0 0-.5292-.1016l-.55-.0948-.5722-.088-.5958-.0814-.621-.075-.6477-.0687-.6757-.0624-.7053-.0563-.7363-.0504-.7689-.0445-.8028-.0388-1.2713-.0478-1.356-.0357-.9535-.0172-.995-.0122-1.5732-.009-68.5108 0Z" fill-rule="nonzero"/><path d="m94.9991 85.0001 12-12.0001 2 0 0 41.0005c0 2.7614-2.2386 5-5 5l-56 0c-2.7614 0-5-2.2386-5-5l0-29.0004 52 0Zm2-12.0001-12 12.0001-10 0 0-.0011 12-11.999 10 0Zm-20 0-12 12.0001-10 0 0-.0011 12-11.999 10 0Zm-20 0-12 12.0001-2 0 0-12.0001 14 0Zm-17.4372-11.1702 15.5616 4.17-12.1244 7-3.5-6.0623c-.9475-1.6412-.859-3.5962.0628-5.1077l0 0Zm16.4897-10.2225 16.391 4.3921.0014.0004-8.6602 5-16.3918-4.3915-.0006-.001 8.6602-5Zm17.3205-10 16.3924 4.3925-8.6602 5-16.3918-4.3915-.0006-.001 8.6602-5Zm16.4545-9.5c2.3915-1.3807 5.4494-.5613 6.8302 1.8302l0 0 3.5 6.0623-1.732 1-16.3924-4.3925Z"/></g></g></svg>