<svg preserveAspectRatio="xMaxYMin slice" viewBox="0 0 316 316" xmlns="http://www.w3.org/2000/svg"><mask id="pi"><path d="m38.4583 0 75.0834 0c13.3728 0 18.2221 1.3924 23.111 4.007 4.8889 2.6146 8.7257 6.4514 11.3403 11.3403 2.6146 4.8889 4.007 9.7382 4.007 23.111l0 75.0834c0 13.3728-1.3924 18.2221-4.007 23.111-2.6146 4.8889-6.4514 8.7257-11.3403 11.3403-4.8889 2.6146-9.7382 4.007-23.111 4.007l-75.0834 0c-13.3728 0-18.2221-1.3924-23.111-4.007-4.8889-2.6146-8.7257-6.4514-11.3403-11.3403-2.6146-4.8889-4.007-9.7382-4.007-23.111l0-75.0834c0-13.3728 1.3924-18.2221 4.007-23.111 2.6146-4.8889 6.4514-8.7257 11.3403-11.3403 4.8889-2.6146 9.7382-4.007 23.111-4.007Z" fill="#fff"/></mask><image href="/assets/sprites/smarthome.jpg" x="-826" y="-826" mask="url(#pi)" width="1312"></image><path d="M64 32c10.5537 0 19.5164 6.812 22.731 16.279l.4635 1.136.4492 1.0845.4551 1.0793.463 1.074c.0778.1785.1561.3567.2349.5348l.4778 1.065c3.143 6.9033 7.0508 13.4097 13.8516 19.1145 5.3065 4.3118 8.7348 10.8448 8.8698 18.1827l.0041.4502 0 24-72 0 0-60 .0032-.3969c.212-13.0718 10.8745-23.6031 23.9968-23.6031Zm36 66-48 0 0 6 48 0 0-6Zm-36-54c-6.452 0-11.7278 5.0981-11.9886 11.4039l-.0086.2964-.0028.2997 0 31 46.9151.0008c-.7141-1.5577-1.7618-2.9538-3.0862-4.0946l-.4148-.3454c-7.8996-6.6265-12.5815-13.4096-17.2926-23.8765l-.5546-1.2486-.556-1.2838a172.7465 172.7465 0 0 1-.279-.6556l-.5603-1.3392a209.468 209.468 0 0 1-.2818-.6839l-.4195-1.0352-.102-.3006c-1.6376-4.8227-6.1873-8.1374-11.3683-8.1374Z" fill="#0F0700" fill-rule="nonzero"/><path d="m38.4583 164 239.0834 0c13.3728 0 18.2221 1.3924 23.111 4.007 4.8889 2.6146 8.7257 6.4514 11.3403 11.3403 2.6146 4.8889 4.007 9.7382 4.007 23.111l0 75.0834c0 13.3728-1.3924 18.2221-4.007 23.111-2.6146 4.8889-6.4514 8.7257-11.3403 11.3403-4.8889 2.6146-9.7382 4.007-23.111 4.007l-239.0834 0c-13.3728 0-18.2221-1.3924-23.111-4.007-4.8889-2.6146-8.7257-6.4514-11.3403-11.3403-2.6146-4.8889-4.007-9.7382-4.007-23.111l0-75.0834c0-13.3728 1.3924-18.2221 4.007-23.111 2.6146-4.8889 6.4514-8.7257 11.3403-11.3403 4.8889-2.6146 9.7382-4.007 23.111-4.007Z" fill="#8844A2"/><circle fill="#A95DC6" cx="162" cy="250" r="27"/><path d="M146.1148 191.0623c5.9568 1.5856 11.6137 4.7568 16.3705 9.5135l25.4558 25.4559c4.7568 4.7568 7.928 10.4136 9.5136 16.3705a35.3 35.3 0 0 1 0 18.1707c-1.5856 5.9568-4.7568 11.6137-9.5136 16.3705-4.7568 4.7568-10.4136 7.928-16.3705 9.5136a35.3 35.3 0 0 1-18.1706 0c-5.957-1.5856-11.6138-4.7568-16.3706-9.5136l-25.4558-25.4559c-4.7568-4.7568-7.928-10.4136-9.5136-16.3705a35.3 35.3 0 0 1 0-18.1706c1.5856-5.957 4.7568-11.6138 9.5136-16.3706 4.7568-4.7567 10.4136-7.928 16.3705-9.5135a35.3 35.3 0 0 1 18.1707 0Zm-3.0867 11.5962a23.3 23.3 0 0 0-11.9973 0c-4.0555 1.0795-7.812 3.2428-10.972 6.4026-3.1598 3.1599-5.323 6.9165-6.4026 10.972a23.3 23.3 0 0 0 0 11.9972c1.0363 3.8933 3.0715 7.511 6.0283 10.59l.3744.382 25.4558 25.4558c3.1599 3.1599 6.9165 5.3231 10.972 6.4026a23.3 23.3 0 0 0 11.9972 0c4.0555-1.0795 7.812-3.2427 10.972-6.4026 3.1598-3.1599 5.3231-6.9165 6.4026-10.972a23.3 23.3 0 0 0 0-11.9972c-1.0363-3.8933-3.0715-7.511-6.0283-10.5899l-.3744-.382-25.4558-25.4559c-3.0335-3.0334-6.6169-5.1485-10.4867-6.2679l-.4852-.1347Z" fill="#0F0700" fill-rule="nonzero"/><path d="M171.5706 216.5181c5.9569 1.5856 11.6137 4.7568 16.3705 9.5136 4.7568 4.7568 7.928 10.4136 9.5136 16.3705a35.3 35.3 0 0 1 0 18.1707c-1.5856 5.9568-4.7568 11.6137-9.5136 16.3705-4.7568 4.7568-10.4136 7.928-16.3705 9.5136a35.3 35.3 0 0 1-18.1706 0c-5.957-1.5856-11.6138-4.7568-16.3706-9.5136-4.7568-4.7568-7.928-10.4137-9.5135-16.3705a35.3 35.3 0 0 1 0-18.1707c1.5856-5.9569 4.7567-11.6137 9.5135-16.3705 4.7568-4.7568 10.4137-7.928 16.3706-9.5136a35.3 35.3 0 0 1 18.1706 0Zm-3.0867 11.5962a23.3 23.3 0 0 0-11.9973 0c-4.0554 1.0795-7.812 3.2428-10.9719 6.4027-3.1599 3.1598-5.3231 6.9164-6.4026 10.9719a23.3 23.3 0 0 0 0 11.9973c1.0795 4.0554 3.2428 7.812 6.4026 10.9719 3.1599 3.1599 6.9165 5.3231 10.972 6.4026a23.3 23.3 0 0 0 11.9972 0c4.0555-1.0795 7.812-3.2427 10.972-6.4026 3.1598-3.1599 5.3231-6.9165 6.4026-10.972a23.3 23.3 0 0 0 0-11.9972c-1.0795-4.0555-3.2428-7.812-6.4027-10.972-3.0334-3.0334-6.6168-5.1484-10.4867-6.2678l-.4852-.1348Z" fill="#0F0700" fill-rule="nonzero"/></svg>