<svg viewBox="0 0 316 316" preserveAspectRatio="xMinYMin slice" xmlns="http://www.w3.org/2000/svg"><g fill="none" fill-rule="evenodd"><g transform="translate(0 164)"><path d="m38.4583 0 75.0834 0c13.3728 0 18.2221 1.3924 23.111 4.007 4.8889 2.6146 8.7257 6.4514 11.3403 11.3403 2.6146 4.8889 4.007 9.7382 4.007 23.111l0 75.0834c0 13.3728-1.3924 18.2221-4.007 23.111-2.6146 4.8889-6.4514 8.7257-11.3403 11.3403-4.8889 2.6146-9.7382 4.007-23.111 4.007l-75.0834 0c-13.3728 0-18.2221-1.3924-23.111-4.007-4.8889-2.6146-8.7257-6.4514-11.3403-11.3403-2.6146-4.8889-4.007-9.7382-4.007-23.111l0-75.0834c0-13.3728 1.3924-18.2221 4.007-23.111 2.6146-4.8889 6.4514-8.7257 11.3403-11.3403 4.8889-2.6146 9.7382-4.007 23.111-4.007Z" fill="#7E7A78"/><g transform="translate(42 37)" fill="#0F0700"><path d="M68 44c0 18.7777-15.2223 34-34 34-18.7777 0-34-15.2223-34-34 0-13.7868 8.2058-25.657 19.9999-30.993l.0006 14.0212c-4.8863 4.0352-8.0005 10.1398-8.0005 16.9718 0 12.1503 9.8497 22 22 22 12.1503 0 22-9.8497 22-22 0-6.8315-3.1138-12.9358-7.9995-16.971l.0006-14.0215c11.7935 5.3362 19.9989 17.2061 19.9989 30.9925Z" fill-rule="nonzero"/><path d="M28.5 0h11v46h-11z"/></g></g><g transform="translate(164)"><path d="m38.4583 0 75.0834 0c13.3728 0 18.2221 1.3924 23.111 4.007 4.8889 2.6146 8.7257 6.4514 11.3403 11.3403 2.6146 4.8889 4.007 9.7382 4.007 23.111l0 75.0834c0 13.3728-1.3924 18.2221-4.007 23.111-2.6146 4.8889-6.4514 8.7257-11.3403 11.3403-4.8889 2.6146-9.7382 4.007-23.111 4.007l-75.0834 0c-13.3728 0-18.2221-1.3924-23.111-4.007-4.8889-2.6146-8.7257-6.4514-11.3403-11.3403-2.6146-4.8889-4.007-9.7382-4.007-23.111l0-75.0834c0-13.3728 1.3924-18.2221 4.007-23.111 2.6146-4.8889 6.4514-8.7257 11.3403-11.3403 4.8889-2.6146 9.7382-4.007 23.111-4.007Z" class="onfill" fill="#E78C54"/><g transform="translate(36 36)"><circle cx="40" cy="40" r="14"/><path d="m34.5 0 11 0 0 16-11 0zm0 64 11 0 0 16-11 0z" fill="#080400"/><path d="m34.5 0 11 0 0 16-11 0zm0 64 11 0 0 16-11 0z" fill="#080400"/><path d="m80 34.5 0 11-16 0 0-11zm-64 0 0 11-16 0 0-11z" fill="#080400"/><path d="m64.395 7.8266 7.7782 7.7782-11.3137 11.3137-7.7782-7.7782zm-45.2548 45.2548 7.7782 7.7782-11.3137 11.3137-7.7782-7.7782z" fill="#080400"/><path d="m72.1732 64.3949-7.7781 7.7781-11.3138-11.3137 7.7782-7.7781zm-45.2548-45.2549-7.7782 7.7782-11.3137-11.3137 7.7782-7.7782z" fill="#080400"/></g><rect fill="#080400" x="65.5" y="60" width="21" height="32" rx="4"/></g></g></svg>