<svg viewBox="0 0 948 564" xmlns="http://www.w3.org/2000/svg"><g fill="none" fill-rule="evenodd"><path d="m430.15 4 87.7 0c16.0474 0 21.8666 1.6709 27.7332 4.8084 5.8667 3.1375 10.4709 7.7417 13.6084 13.6084 3.1375 5.8666 4.8084 11.6858 4.8084 27.7331l0 87.7002c0 16.0473-1.6709 21.8665-4.8084 27.7331-3.1375 5.8667-7.7417 10.4709-13.6084 13.6084-5.8666 3.1375-11.6858 4.8084-27.7331 4.8084l-87.7002 0c-16.0473 0-21.8665-1.6709-27.7331-4.8084-5.8667-3.1375-10.4709-7.7417-13.6084-13.6084-3.1375-5.8666-4.8084-11.6858-4.8084-27.7331l0-87.7002c0-16.0473 1.6709-21.8665 4.8084-27.7331 3.1375-5.8667 7.7417-10.4709 13.6084-13.6084 5.8666-3.1375 11.6858-4.8084 27.7331-4.8084Z" fill="#E4E1DF"/><path d="M352.0485 201.209c6.3555 3.399 11.3434 8.387 14.7424 14.7425l.3581.6813.3459.6839.2237.4589.2183.4623.3171.702.2045.4748.199.4815.1934.489a33.8977 33.8977 0 0 1 .0947.2475l.185.5019.1795.5116.1738.5222.1682.5338a35.46 35.46 0 0 1 .082.2715l.1597.5528.154.5666.1483.5813a39.971 39.971 0 0 1 .072.2965l.1398.605.134.622.1282.6398a48.0285 48.0285 0 0 1 .062.327l.1195.6683.1137.6884.108.7094.102.7314.0962.7542.0904.7778.0844.8025.0785.828.0726.8545.0667.8818.0606.91.0547.939.0487.9692.0427 1 .0366 1.032.0305 1.0646.0245 1.0982.0184 1.1328.0123 1.1682.0069 1.8208 0 80.6246-.007 1.2046-.0206 1.739-.0215 1.1154-.0275 1.0813-.0336 1.0481-.0396 1.016-.0457.9844-.0517.954-.0577.9244-.0636.8958-.0696.868-.0756.841-.0815.8152-.0874.7901-.0932.766-.0992.7426-.105.7203-.1108.6988-.1167.6783a48.7569 48.7569 0 0 1-.1224.6586l-.1283.6398-.134.622-.1397.605-.1454.589-.1512.5739-.1569.5596a35.9013 35.9013 0 0 1-.0805.2747l-.1654.5399-.171.5279-.1767.5168-.1822.5066a33.7556 33.7556 0 0 1-.0932.2498l-.1907.493-.1962.4851-.3047.7147-.317.702-.2184.4623-.2237.459-.2293.4563-.354.6818a55.1253 55.1253 0 0 1-.1207.227c-3.399 6.3555-8.3869 11.3434-14.7424 14.7424l-.6813.3581-.6839.3459-.4589.2237-.4623.2183-.702.3171-.4748.2045-.4815.199-.489.1934a33.8977 33.8977 0 0 1-.2475.0947l-.5019.185-.5116.1795-.5222.1738-.5338.1682a35.46 35.46 0 0 1-.2715.082l-.5528.1597-.5666.154-.5813.1483a39.971 39.971 0 0 1-.2965.072l-.605.1398-.622.134-.6398.1282a48.0285 48.0285 0 0 1-.327.062l-.6683.1195-.6884.1137-.7094.108-.7314.102-.7542.0962-.7778.0904-.8025.0844-.828.0785-.8545.0726-.8818.0667-.91.0606-.939.0547-.9692.0487-1 .0427-1.032.0366-1.0646.0305-1.0982.0245-1.1328.0184-1.1682.0123-1.8208.0069-80.6246 0-1.2046-.007-1.739-.0206-1.1154-.0215-1.0813-.0275-1.0481-.0336-1.016-.0396-.9844-.0457-.954-.0517-.9244-.0577-.8958-.0636-.868-.0696-.841-.0756-.8152-.0815-.7901-.0874-.766-.0932-.7426-.0992-.7203-.105-.6988-.1108-.6783-.1167a48.7569 48.7569 0 0 1-.6586-.1224l-.6398-.1283-.622-.134-.605-.1397-.589-.1454-.5739-.1512-.5596-.1569a35.9013 35.9013 0 0 1-.2747-.0805l-.5399-.1654-.5279-.171-.5168-.1767-.5066-.1822a33.7556 33.7556 0 0 1-.2498-.0932l-.493-.1907-.4851-.1962-.7147-.3047-.702-.317-.4623-.2184-.459-.2237-.4563-.2293-.6818-.354a55.1253 55.1253 0 0 1-.227-.1207c-6.3555-3.399-11.3434-8.3869-14.7424-14.7424l-.3668-.6981-.2374-.4668-.3453-.7047-.223-.4742-.3238-.7204-.2086-.4877-.2028-.4948-.1969-.5028-.191-.5119-.1853-.5219a34.1651 34.1651 0 0 1-.1793-.5328l-.1733-.5448-.1675-.5577-.1615-.5716-.1555-.5864a39.4848 39.4848 0 0 1-.1495-.6023l-.1435-.619a42.9348 42.9348 0 0 1-.0695-.3161l-.1345-.646-.1284-.6653a49.5783 49.5783 0 0 1-.062-.3402l-.1192-.6959-.1132-.7175-.107-.7402-.1009-.7637-.0947-.7883-.0885-.8138-.0824-.8403-.076-.8678-.07-.8962-.0636-.9255-.0573-.956-.051-.9873-.0447-1.0196-.0384-1.0529-.032-1.0871-.036-1.697-.016-1.177-.012-1.8365 0-81.2408.0061-1.2046.0207-1.739.0215-1.1154.0275-1.0813.0336-1.0481.0396-1.016.0457-.9844.0517-.954.0577-.9244.0636-.8958.0696-.868.0756-.841.0815-.8152.0874-.7901.0932-.766.0992-.7426.105-.7203.1108-.6988.1167-.6783a48.7569 48.7569 0 0 1 .1224-.6586l.1283-.6398.134-.622.1397-.605.1454-.589.1512-.5739.1569-.5596a35.9013 35.9013 0 0 1 .0805-.2747l.1654-.5399.171-.5279.1767-.5168.1822-.5066a33.7556 33.7556 0 0 1 .0932-.2498l.1907-.493.1962-.4851.3047-.7147.317-.702.2184-.4623.2237-.459.2293-.4563.354-.6818a55.1253 55.1253 0 0 1 .1207-.227c3.399-6.3555 8.3869-11.3434 14.7424-14.7424l.6981-.3668.4668-.2374.7047-.3453.4742-.223.7204-.3238.4877-.2086.4948-.2028.5028-.1969.5119-.191.5219-.1853a34.1651 34.1651 0 0 1 .5328-.1793l.5448-.1733.5577-.1675.5716-.1615.5864-.1555a39.4848 39.4848 0 0 1 .6023-.1495l.619-.1435a42.9348 42.9348 0 0 1 .3161-.0695l.646-.1345.6653-.1284a49.5783 49.5783 0 0 1 .3402-.062l.6959-.1192.7175-.1132.7402-.107.7637-.1009.7883-.0947.8138-.0885.8403-.0824.8678-.076.8962-.07.9255-.0636.956-.0573.9873-.051 1.0196-.0447 1.0529-.0384 1.0871-.032 1.697-.036 1.177-.016 1.8365-.012 81.2408 0 1.2046.0061 1.739.0207 1.1154.0215 1.0813.0275 1.0481.0336 1.016.0396.9844.0457.954.0517.9244.0577.8958.0636.868.0696.841.0756.8152.0815.7901.0874.766.0932.7426.0992.7203.105.6988.1108.6783.1167a48.7569 48.7569 0 0 1 .6586.1224l.6398.1283.622.134.605.1397.589.1454.5739.1512.5596.1569a35.9013 35.9013 0 0 1 .2747.0805l.5399.1654.5279.171.5168.1767.5066.1822a33.7556 33.7556 0 0 1 .2498.0932l.493.1907.4851.1962.7147.3047.702.317.4623.2184.459.2237.4563.2293.6818.354a49.907 49.907 0 0 1 .227.1207Zm-110.6337 8.7916-1.7375.01-1.6385.021-1.5442.0326-.9793.0284-.941.0338-.904.0393-.8684.045-.8342.0509-.8014.0568-.77.0629-.7401.069-.7115.0754-.6843.0819a45.6484 45.6484 0 0 0-.3324.0434l-.6462.0917-.6225.0985-.6003.1054a32.9576 32.9576 0 0 0-.2922.0553l-.5695.116a29.409 29.409 0 0 0-.2777.0607l-.5419.1268-.5253.1342a25.3431 25.3431 0 0 0-.2568.0699l-.503.1455-.4897.1532a23.2526 23.2526 0 0 0-.2405.0795l-.4727.165-.4631.173-.455.1812-.448.1895-.4427.1978-.4387.2063a26.8568 26.8568 0 0 0-.2182.1064l-.4353.2194-.4348.2282c-3.9158 2.0942-6.9052 5.0836-8.9994 8.9994l-.2244.4275-.216.4282-.2075.4301a25.3123 25.3123 0 0 0-.1007.2163l-.1952.4356-.1871.441a23.1909 23.1909 0 0 0-.0906.223l-.1752.4513-.1675.4601a23.104 23.104 0 0 0-.0808.2337l-.156.4755-.1484.4875a24.6937 24.6937 0 0 0-.0714.2486l-.1374.5078a26.5228 26.5228 0 0 0-.066.2596l-.1265.5313-.1195.5485-.1126.567a33.7703 33.7703 0 0 0-.0537.291l-.1024.5975a38.516 38.516 0 0 0-.0487.3068l-.0924.6308a44.4276 44.4276 0 0 0-.0438.3243l-.0828.667-.0764.693-.0702.7203-.0642.7487-.0582.7786-.0523.8097-.0677 1.276-.0382.8935-.047 1.4079-.0248.9855-.0274 1.5522-.012 1.0859-.009 1.7088 0 81.1812.0101 1.7375.021 1.6385.0326 1.5442.0284.9793.0338.941.0393.904.045.8684.0509.8342.0568.8014.0629.77.069.7401.0754.7115.0819.6843a45.6484 45.6484 0 0 0 .0434.3324l.0917.6462.0985.6225.1054.6003a32.9576 32.9576 0 0 0 .0553.2922l.116.5695a29.409 29.409 0 0 0 .0607.2777l.1268.5419.1342.5253a25.3431 25.3431 0 0 0 .0699.2568l.1455.503.1532.4897a23.2526 23.2526 0 0 0 .0795.2405l.165.4727.173.4631.1812.455.1895.448.1978.4427.2063.4387a26.8568 26.8568 0 0 0 .1064.2182l.2194.4353.2282.4348c2.0942 3.9158 5.0836 6.9052 8.9994 8.9994l.4275.2244.4282.216.4301.2075a22.275 22.275 0 0 0 .2163.1007l.4356.1952.441.1871a23.191 23.191 0 0 0 .223.0906l.4513.1752.4601.1675a23.0954 23.0954 0 0 0 .2337.0808l.4755.156.4875.1484a24.6862 24.6862 0 0 0 .2486.0714l.5078.1374a26.516 26.516 0 0 0 .2596.066l.5313.1265.5485.1195.567.1126a33.7705 33.7705 0 0 0 .291.0537l.5975.1024a38.5162 38.5162 0 0 0 .3068.0487l.6308.0924a44.4356 44.4356 0 0 0 .3243.0438l.6671.0828.693.0764.7202.0702.7487.0642.7786.0582.8098.0523 1.276.0677.8935.0382 1.4079.047.9855.0248 1.5522.0274 1.0859.012 1.7088.009 81.1918 0 1.7088-.009 1.086-.012 1.552-.0274.9856-.0248.9478-.03 1.3536-.0552.859-.0437 1.2268-.0763.7786-.0582.7487-.0642.7202-.0702.693-.0764.6671-.0828.6426-.0892a40.3056 40.3056 0 0 0 .3125-.047l.6082-.099a34.5007 34.5007 0 0 0 .587-.1058l.5671-.1126.5485-.1195.5313-.1266.5153-.1337a25.2373 25.2373 0 0 0 .2521-.0696l.494-.1447.4813-.1522a23.264 23.264 0 0 0 .2363-.079l.4649-.1635a22.898 22.898 0 0 0 .2289-.0847l.4514-.1752.4441-.1831a23.7702 23.7702 0 0 0 .2198-.0946l.4356-.1952.4317-.2034.429-.2118.4277-.2201a31.5952 31.5952 0 0 0 .2137-.1133c3.9158-2.0942 6.9052-5.0836 8.9994-8.9994l.2244-.4275.216-.4282.2075-.4301a25.3123 25.3123 0 0 0 .1007-.2163l.1952-.4356.1871-.441a23.191 23.191 0 0 0 .0906-.223l.1752-.4513.1675-.4601a23.0954 23.0954 0 0 0 .0808-.2337l.156-.4755.1484-.4875a24.6862 24.6862 0 0 0 .0714-.2486l.1374-.5078a26.516 26.516 0 0 0 .066-.2596l.1265-.5313.1195-.5485.1126-.567a33.7705 33.7705 0 0 0 .0537-.291l.1024-.5975a38.5162 38.5162 0 0 0 .0487-.3068l.0924-.6308a44.4356 44.4356 0 0 0 .0438-.3243l.0828-.6671.0764-.693.0702-.7202.0642-.7487.0582-.7786.0523-.8098.0677-1.276.0382-.8935.047-1.4079.0248-.9855.0274-1.5522.012-1.0859.009-1.7088 0-81.1918-.009-1.7088-.012-1.086-.0274-1.552-.0248-.9856-.03-.9478-.0552-1.3536-.0437-.859-.0763-1.2268-.0582-.7786-.0642-.7487-.0702-.7202-.0764-.693-.0828-.6671-.0892-.6426a40.3056 40.3056 0 0 0-.047-.3125l-.099-.6082a34.5007 34.5007 0 0 0-.1058-.587l-.1126-.5671-.1195-.5485-.1266-.5313-.1337-.5153a25.2373 25.2373 0 0 0-.0696-.2521l-.1447-.494-.1522-.4813a23.264 23.264 0 0 0-.079-.2363l-.1635-.4649a22.898 22.898 0 0 0-.0847-.2289l-.1752-.4514-.1831-.4441a23.7702 23.7702 0 0 0-.0946-.2198l-.1952-.4356-.2034-.4317-.2118-.429-.2201-.4277a31.5952 31.5952 0 0 0-.1133-.2137c-2.0942-3.9158-5.0836-6.9052-8.9994-8.9994l-.4275-.2244-.4282-.216-.4301-.2075a25.3123 25.3123 0 0 0-.2163-.1007l-.4356-.1952-.441-.1871a23.1909 23.1909 0 0 0-.223-.0906l-.4513-.1752-.4601-.1675a23.104 23.104 0 0 0-.2337-.0808l-.4755-.156-.4875-.1484a24.6937 24.6937 0 0 0-.2486-.0714l-.5078-.1374a26.5228 26.5228 0 0 0-.2596-.066l-.5313-.1265-.5485-.1195-.567-.1126a33.7703 33.7703 0 0 0-.291-.0537l-.5975-.1024a38.516 38.516 0 0 0-.3068-.0487l-.6308-.0924a44.4276 44.4276 0 0 0-.3243-.0438l-.667-.0828-.693-.0764-.7203-.0702-.7487-.0642-.7786-.0582-.8097-.0523-1.276-.0677-.8935-.0382-1.4079-.047-.9855-.0248-1.5522-.0274-1.0859-.012-1.7088-.009-81.1812 0Z" fill="#AF110E" fill-rule="nonzero"/><path d="m46.15 388 279.7 0c16.0474 0 21.8666 1.6709 27.7332 4.8084 5.8667 3.1375 10.4709 7.7417 13.6084 13.6084 3.1375 5.8666 4.8084 11.6858 4.8084 27.7331l0 87.7002c0 16.0473-1.6709 21.8665-4.8084 27.7331-3.1375 5.8667-7.7417 10.4709-13.6084 13.6084-5.8666 3.1375-11.6858 4.8084-27.7331 4.8084l-279.7002 0c-16.0473 0-21.8665-1.6709-27.7331-4.8084-5.8667-3.1375-10.4709-7.7417-13.6084-13.6084-3.1375-5.8666-4.8084-11.6858-4.8084-27.7331l0-87.7002c0-16.0473 1.6709-21.8665 4.8084-27.7331 3.1375-5.8667 7.7417-10.4709 13.6084-13.6084 5.8666-3.1375 11.6858-4.8084 27.7331-4.8084Z" fill="#413E3B"/><path d="m622.15 4 87.7 0c16.0474 0 21.8666 1.6709 27.7332 4.8084 5.8667 3.1375 10.4709 7.7417 13.6084 13.6084 3.1375 5.8666 4.8084 11.6858 4.8084 27.7331l0 87.7002c0 16.0473-1.6709 21.8665-4.8084 27.7331-3.1375 5.8667-7.7417 10.4709-13.6084 13.6084-5.8666 3.1375-11.6858 4.8084-27.7331 4.8084l-87.7002 0c-16.0473 0-21.8665-1.6709-27.7331-4.8084-5.8667-3.1375-10.4709-7.7417-13.6084-13.6084-3.1375-5.8666-4.8084-11.6858-4.8084-27.7331l0-87.7002c0-16.0473 1.6709-21.8665 4.8084-27.7331 3.1375-5.8667 7.7417-10.4709 13.6084-13.6084 5.8666-3.1375 11.6858-4.8084 27.7331-4.8084Z" fill="#1EAC8F"/><path d="m622.15 388 87.7 0c16.0474 0 21.8666 1.6709 27.7332 4.8084 5.8667 3.1375 10.4709 7.7417 13.6084 13.6084 3.1375 5.8666 4.8084 11.6858 4.8084 27.7331l0 87.7002c0 16.0473-1.6709 21.8665-4.8084 27.7331-3.1375 5.8667-7.7417 10.4709-13.6084 13.6084-5.8666 3.1375-11.6858 4.8084-27.7331 4.8084l-87.7002 0c-16.0473 0-21.8665-1.6709-27.7331-4.8084-5.8667-3.1375-10.4709-7.7417-13.6084-13.6084-3.1375-5.8666-4.8084-11.6858-4.8084-27.7331l0-87.7002c0-16.0473 1.6709-21.8665 4.8084-27.7331 3.1375-5.8667 7.7417-10.4709 13.6084-13.6084 5.8666-3.1375 11.6858-4.8084 27.7331-4.8084Z" fill="#908B87"/><path d="m814.15 196 87.7 0c16.0474 0 21.8666 1.6709 27.7332 4.8084 5.8667 3.1375 10.4709 7.7417 13.6084 13.6084 3.1375 5.8666 4.8084 11.6858 4.8084 27.7331l0 87.7002c0 16.0473-1.6709 21.8665-4.8084 27.7331-3.1375 5.8667-7.7417 10.4709-13.6084 13.6084-5.8666 3.1375-11.6858 4.8084-27.7331 4.8084l-87.7002 0c-16.0473 0-21.8665-1.6709-27.7331-4.8084-5.8667-3.1375-10.4709-7.7417-13.6084-13.6084-3.1375-5.8666-4.8084-11.6858-4.8084-27.7331l0-87.7002c0-16.0473 1.6709-21.8665 4.8084-27.7331 3.1375-5.8667 7.7417-10.4709 13.6084-13.6084 5.8666-3.1375 11.6858-4.8084 27.7331-4.8084Z" fill="#9E3BE0"/><text font-family="ExplorerDSWeb" font-size="98.038" font-weight="620" letter-spacing="-2.652">
    <tspan x="392" y="278">Beyond</tspan>
        </text><text font-family="ExplorerDSWeb" font-size="98.038" font-weight="620" letter-spacing="-2.652">
            <tspan x="392" y="362">a bu</tspan>
            <tspan x="572.27" y="362" letter-spacing="-7.852">t</tspan>
            <tspan x="603.73" y="362">ton</tspan>
        </text></g></svg>